<svg width="207" height="199" viewBox="0 0 207 199" fill="none" xmlns="http://www.w3.org/2000/svg">
<path d="M87.7469 12.1995V64.523C87.7469 71.2625 93.2094 76.725 99.9459 76.725H152.097L176.847 103.95V76.725H194.348C201.085 76.725 206.547 71.2625 206.547 64.5255V12.202C206.547 5.462 201.085 0 194.348 0H99.9484C93.2094 0 87.7469 5.462 87.7469 12.1995Z" fill="#337DA6"/>
<path d="M179.325 32.175C175.224 32.175 171.9 35.499 171.9 39.6C171.9 43.7005 175.224 47.025 179.325 47.025C183.425 47.025 186.75 43.7005 186.75 39.6C186.75 35.499 183.425 32.175 179.325 32.175Z" fill="#E2E6EE"/>
<path d="M147.145 32.175C143.044 32.175 139.72 35.499 139.72 39.6C139.72 43.7005 143.044 47.025 147.145 47.025C151.246 47.025 154.57 43.7005 154.57 39.6C154.57 35.499 151.246 32.175 147.145 32.175Z" fill="#E2E6EE"/>
<path d="M114.973 32.175C110.872 32.175 107.548 35.499 107.548 39.6C107.548 43.7005 110.872 47.025 114.973 47.025C119.074 47.025 122.398 43.7005 122.398 39.6C122.398 35.499 119.074 32.175 114.973 32.175Z" fill="#E2E6EE"/>
<path d="M119.784 106.75V159.073C119.784 165.813 114.322 171.275 107.585 171.275H55.4344L30.6844 198.5V171.275H13.1834C6.44638 171.275 0.984375 165.813 0.984375 159.076V106.752C0.984375 100.012 6.44638 94.55 13.1834 94.55H107.583C114.322 94.55 119.784 100.012 119.784 106.75Z" fill="#2E3847"/>
<path d="M28.2063 126.725C32.3073 126.725 35.6313 130.049 35.6313 134.15C35.6313 138.251 32.3073 141.575 28.2063 141.575C24.1058 141.575 20.7812 138.251 20.7812 134.15C20.7812 130.049 24.1058 126.725 28.2063 126.725Z" fill="#E2E6EE"/>
<path d="M60.3859 126.725C64.4869 126.725 67.8109 130.049 67.8109 134.15C67.8109 138.251 64.4869 141.575 60.3859 141.575C56.2854 141.575 52.9609 138.251 52.9609 134.15C52.9609 130.049 56.2854 126.725 60.3859 126.725Z" fill="#E2E6EE"/>
<g opacity="0.804621">
<path d="M92.5578 126.725C96.6588 126.725 99.9828 130.049 99.9828 134.15C99.9828 138.251 96.6588 141.575 92.5578 141.575C88.4568 141.575 85.1328 138.251 85.1328 134.15C85.1328 130.049 88.4568 126.725 92.5578 126.725Z" fill="#E2E6EE"/>
</g>
</svg>
