<svg width="293" height="286" viewBox="0 0 293 286" fill="none" xmlns="http://www.w3.org/2000/svg">
<path d="M113.741 168.636H42.6133V286H113.741V168.636Z" fill="#E0E0E0"/>
<path d="M111.377 168.636H40.25V286H111.377V168.636Z" fill="#EBEBEB"/>
<path d="M108.348 171.017H43.2773V283.626H108.348V171.017Z" fill="#FAFAFA"/>
<path d="M95.6738 185.651H55.6602V268.992H95.6738V185.651Z" fill="#EBEBEB"/>
<path d="M55.6611 239.502C55.5687 231.715 62.595 224.119 70.3272 223.027C74.0152 222.507 77.9341 223.237 81.378 221.83C87.5268 219.318 89.4863 211.169 95.6747 208.755L95.9584 268.992H55.6611V239.502Z" fill="#E0E0E0"/>
<path d="M95.1393 135.594H4.83984V284.599H95.1393V135.594Z" fill="#E0E0E0"/>
<path d="M92.1393 135.594H1.83984V284.599H92.1393V135.594Z" fill="#EBEBEB"/>
<path d="M88.3009 138.62H5.6875V281.58H88.3009V138.62Z" fill="#FAFAFA"/>
<path d="M72.2145 157.193H21.4141V263.001H72.2145V157.193Z" fill="#EBEBEB"/>
<path d="M21.4152 225.559C21.2965 215.694 30.2097 206.026 40.0333 204.645C44.7109 203.987 49.6854 204.914 54.0595 203.125C61.8709 199.936 64.3515 189.59 72.2091 186.525L72.572 263.001H21.4152V225.559Z" fill="#E0E0E0"/>
<path d="M116.251 21.5917H85.2695V66.3601H116.251V21.5917Z" fill="#E0E0E0"/>
<path d="M114.704 21.5917H83.7227V66.3601H114.704V21.5917Z" fill="#F5F5F5"/>
<path d="M110.849 26.4454H87.5664V61.5131H110.849V26.4454Z" fill="white"/>
<path d="M110.856 61.513C110.856 61.513 110.856 61.4538 110.856 61.342C110.856 61.2302 110.856 61.0592 110.856 60.8422C110.856 60.4015 110.856 59.757 110.856 58.9218C110.856 57.2381 110.856 54.7915 110.856 51.6873C110.856 45.4985 110.856 36.7447 110.816 26.4322L110.896 26.5046H87.6065L87.6923 26.4257C87.6923 39.6517 87.6923 51.8517 87.6923 61.4933L87.6197 61.4275H104.569H109.253H104.588H87.5933H87.5273V61.3618C87.5273 51.7201 87.5273 39.5201 87.5273 26.2941V26.2086H110.968V26.2875C110.968 36.6197 110.968 45.3932 110.935 51.5886C110.935 54.6797 110.935 57.1197 110.935 58.8231C110.935 59.6518 110.935 60.2963 110.935 60.7304V61.3881L110.856 61.513Z" fill="#E0E0E0"/>
<path d="M114.79 21.5917C114.634 21.8766 114.451 22.1454 114.242 22.394C113.879 22.8742 113.371 23.5253 112.784 24.2356C112.197 24.9459 111.656 25.5509 111.253 26.0047C111.053 26.2548 110.832 26.4879 110.594 26.7019C110.767 26.4292 110.964 26.1718 111.181 25.9324L112.672 24.1238L114.163 22.3217C114.352 22.0618 114.561 21.8177 114.79 21.5917Z" fill="#E0E0E0"/>
<path d="M110.977 61.4012C112.132 63.2371 113.493 64.936 115.034 66.4654Z" fill="white"/>
<path d="M115.034 66.4654C114.777 66.27 114.541 66.0496 114.328 65.8077C113.25 64.7091 112.284 63.5062 111.445 62.2167C111.258 61.959 111.101 61.681 110.977 61.3881C111.183 61.6288 111.373 61.8837 111.544 62.151C111.887 62.6311 112.369 63.2822 112.929 63.9793C113.49 64.6765 114.018 65.2947 114.414 65.7288C114.64 65.957 114.848 66.2033 115.034 66.4654Z" fill="#E0E0E0"/>
<path d="M83.7148 66.3274L87.7723 61.3356Z" fill="white"/>
<path d="M87.7735 61.3356C87.1623 62.2225 86.5015 63.0745 85.7942 63.8874C85.1379 64.7365 84.4376 65.5509 83.6962 66.3274C83.6632 66.3274 84.5407 65.1567 85.6755 63.7756C86.8102 62.3944 87.7405 61.3092 87.7735 61.3356Z" fill="#E0E0E0"/>
<path d="M83.7227 21.5917C84.4222 22.3401 85.0828 23.1238 85.7019 23.9396C86.3607 24.7226 86.9752 25.5416 87.5426 26.3928C86.838 25.6488 86.1771 24.8649 85.5633 24.0448C84.9019 23.2639 84.2873 22.4448 83.7227 21.5917Z" fill="#E0E0E0"/>
<path d="M103.599 33.5616H95.8008V55.6269H103.599V33.5616Z" fill="#FAFAFA"/>
<path d="M293 67.4453H246.613V134.47H293V67.4453Z" fill="#E0E0E0"/>
<path d="M290.676 67.4453H244.289V134.47H290.676V67.4453Z" fill="#F5F5F5"/>
<path d="M284.916 74.7062H250.055V127.216H284.916V74.7062Z" fill="white"/>
<path d="M284.917 127.209C284.917 127.209 284.917 127.123 284.917 126.953C284.917 126.782 284.917 126.532 284.917 126.209C284.917 125.552 284.917 124.585 284.917 123.329C284.917 120.816 284.917 117.146 284.917 112.516C284.917 103.256 284.884 90.1551 284.858 74.7062L284.976 74.818H250.115L250.241 74.693C250.241 94.5024 250.241 112.76 250.241 127.196L250.142 127.097L275.516 127.15H282.522H284.363H285.022C285.022 127.15 284.818 127.15 284.409 127.15H282.581H275.595L250.161 127.202H250.062V127.209C250.062 112.773 250.062 94.5156 250.062 74.7062V74.5944H285.161V74.7127C285.161 90.1814 285.121 103.322 285.108 112.595C285.108 117.199 285.108 120.876 285.108 123.388C285.108 124.631 285.108 125.591 285.108 126.242C285.108 126.564 285.108 126.808 285.108 126.972C285.108 127.137 284.917 127.209 284.917 127.209Z" fill="#E0E0E0"/>
<path d="M290.807 67.4453C290.571 67.8784 290.297 68.2899 289.989 68.6752C289.448 69.3921 288.67 70.372 287.812 71.4243C286.954 72.4766 286.123 73.3973 285.516 74.055C285.213 74.4347 284.873 74.7828 284.5 75.0942C284.758 74.6854 285.05 74.2983 285.371 73.9366L287.601 71.2336L289.837 68.5305C290.13 68.143 290.455 67.7801 290.807 67.4453Z" fill="#E0E0E0"/>
<path d="M285.094 127.045C286.825 129.791 288.863 132.333 291.17 134.621Z" fill="white"/>
<path d="M291.17 134.621C290.786 134.338 290.432 134.017 290.114 133.661C289.304 132.843 288.537 131.982 287.819 131.083C287.097 130.187 286.424 129.254 285.8 128.288C285.523 127.898 285.287 127.481 285.094 127.045C285.403 127.404 285.688 127.784 285.945 128.182C286.459 128.899 287.179 129.879 288.016 130.925C288.854 131.971 289.653 132.898 290.24 133.556C290.576 133.887 290.887 134.243 291.17 134.621Z" fill="#E0E0E0"/>
<path d="M244.285 134.444L250.361 126.972Z" fill="white"/>
<path d="M250.361 126.946C249.45 128.267 248.47 129.54 247.426 130.76C246.443 132.033 245.395 133.254 244.285 134.417C245.2 133.096 246.182 131.823 247.228 130.603C248.206 129.329 249.253 128.109 250.361 126.946Z" fill="#E0E0E0"/>
<path d="M244.289 67.4453C245.336 68.5608 246.321 69.7333 247.238 70.9573C248.223 72.1286 249.141 73.3538 249.989 74.6272C248.942 73.5115 247.958 72.339 247.04 71.1152C246.06 69.9399 245.142 68.715 244.289 67.4453Z" fill="#E0E0E0"/>
<path d="M274.05 85.3673H262.379V118.409H274.05V85.3673Z" fill="#E0E0E0"/>
<path d="M266.134 0H235.152V44.7685H266.134V0Z" fill="#E0E0E0"/>
<path d="M264.575 0H233.594V44.7685H264.575V0Z" fill="#F5F5F5"/>
<path d="M260.732 4.84717H237.449V39.9148H260.732V4.84717Z" fill="white"/>
<path d="M260.731 39.9213C260.731 39.9213 260.731 39.8621 260.731 39.7503V39.2504C260.731 38.8098 260.731 38.1653 260.731 37.3234C260.731 35.6463 260.731 33.1932 260.731 30.0889C260.731 23.9067 260.731 15.1464 260.691 4.83388L260.771 4.91281H237.449L237.534 4.82731C237.534 18.0599 237.534 30.2599 237.534 39.9015L237.468 39.8292L254.417 39.8686H259.095H260.329H259.121H254.457L237.468 39.9081H237.402V39.8423C237.402 30.2007 237.402 18.0007 237.402 4.76812V4.68262H260.85V4.87992C260.85 15.2121 260.85 23.9922 260.81 30.1876C260.81 33.2721 260.81 35.7187 260.81 37.4221C260.81 38.2508 260.81 38.8887 260.81 39.3293V39.7371C260.788 39.8002 260.761 39.8617 260.731 39.9213Z" fill="#E0E0E0"/>
<path d="M264.669 0C264.51 0.284633 264.325 0.553339 264.114 0.802373C263.752 1.28248 263.244 1.93359 262.663 2.63731C262.082 3.34103 261.535 3.95267 261.132 4.41305C260.934 4.66314 260.714 4.89432 260.473 5.10362C260.652 4.83344 260.85 4.5763 261.066 4.33413L262.557 2.53208L264.048 0.723451C264.234 0.464908 264.441 0.222853 264.669 0Z" fill="#E0E0E0"/>
<path d="M260.852 39.803C262.01 41.6408 263.375 43.34 264.922 44.8671Z" fill="white"/>
<path d="M264.92 44.8671C264.658 44.6769 264.418 44.4562 264.208 44.2094C263.792 43.7885 263.245 43.19 262.677 42.4863C262.11 41.7826 261.648 41.1117 261.358 40.6185C261.171 40.3569 261.012 40.0771 260.883 39.7832C261.092 40.0259 261.284 40.283 261.457 40.5527C261.793 41.0262 262.275 41.6839 262.836 42.381C263.396 43.0782 263.931 43.6964 264.32 44.1239C264.534 44.3598 264.735 44.608 264.92 44.8671Z" fill="#E0E0E0"/>
<path d="M233.594 44.7356L237.651 39.7372Z" fill="white"/>
<path d="M237.653 39.7372C237.036 40.6182 236.376 41.4677 235.673 42.2824C234.552 43.6636 233.615 44.7553 233.582 44.729C234.193 43.842 234.854 42.9901 235.561 42.1772C236.211 41.3249 236.91 40.5102 237.653 39.7372Z" fill="#E0E0E0"/>
<path d="M233.595 0C234.3 0.743707 234.96 1.52768 235.574 2.34793C236.231 3.13205 236.846 3.95096 237.415 4.80109C236.712 4.05564 236.051 3.27179 235.435 2.45316C234.386 1.12464 233.562 0.0263073 233.595 0Z" fill="#E0E0E0"/>
<path d="M253.482 11.9697H245.684V34.035H253.482V11.9697Z" fill="#FAFAFA"/>
<path d="M287.056 285.001C287.056 285.099 222.79 285.178 143.534 285.178C64.2791 285.178 0 285.099 0 285.001C0 284.902 64.2527 284.829 143.534 284.829C222.816 284.829 287.056 284.908 287.056 285.001Z" fill="#263238"/>
<path d="M66.4504 56.9883L64.5305 80.4478C64.4541 81.3937 64.5711 82.3452 64.8745 83.2447C65.1778 84.1442 65.6612 84.9729 66.2953 85.6807C66.9295 86.3885 67.7011 86.9605 68.5635 87.3623C69.426 87.764 70.3613 87.987 71.3127 88.0177C73.121 88.0812 74.8842 87.4475 76.2358 86.2483C77.5874 85.0491 78.4234 83.3768 78.5699 81.579C78.7151 79.8098 78.8338 78.3366 78.8602 78.1591C78.8602 78.1591 84.8969 78.0801 85.8139 72.2399C86.256 69.3987 86.6914 63.4796 87.0213 58.1129C87.1917 55.3358 86.3067 52.5966 84.5425 50.4406C82.7783 48.2846 80.2644 46.8701 77.5011 46.4785L76.9271 46.393C70.6991 45.8471 66.8 50.7995 66.4504 56.9883Z" fill="#FFBE9D"/>
<path d="M78.8748 78.0736C76.1406 77.7336 73.5703 76.5887 71.4922 74.7852C71.4922 74.7852 72.7061 79.2771 78.6702 79.5862L78.8748 78.0736Z" fill="#EB996E"/>
<path d="M84.8116 61.0856C84.7835 61.3046 84.6703 61.5038 84.4963 61.6404C84.3223 61.7769 84.1015 61.8399 83.8814 61.8157C83.7727 61.809 83.6664 61.7808 83.5688 61.7327C83.4711 61.6846 83.3841 61.6175 83.3128 61.5354C83.2416 61.4533 83.1874 61.3579 83.1537 61.2547C83.1199 61.1515 83.1071 61.0426 83.1161 60.9344C83.1457 60.7149 83.2603 60.5156 83.4354 60.3792C83.6104 60.2428 83.8321 60.18 84.0529 60.2043C84.1617 60.21 84.2682 60.2377 84.3659 60.2856C84.4636 60.3335 84.5506 60.4007 84.6215 60.4831C84.6925 60.5655 84.7459 60.6613 84.7786 60.7649C84.8112 60.8685 84.8225 60.9776 84.8116 61.0856Z" fill="#263238"/>
<path d="M85.4705 60.4477C85.3452 60.5463 84.8108 59.9807 83.8673 59.8558C82.9239 59.7308 82.2312 60.086 82.152 59.961C82.0728 59.836 82.2444 59.7242 82.561 59.5532C82.993 59.3367 83.4822 59.2608 83.9597 59.3362C84.4319 59.3984 84.8714 59.6106 85.2132 59.9413C85.4705 60.1978 85.5365 60.4082 85.4705 60.4477Z" fill="#263238"/>
<path d="M76.0109 60.2702C75.9812 60.4902 75.8668 60.69 75.692 60.8275C75.5172 60.9649 75.2956 61.0292 75.074 61.0068C74.9659 60.9993 74.8603 60.9705 74.7635 60.922C74.6666 60.8735 74.5804 60.8063 74.5098 60.7243C74.4392 60.6423 74.3856 60.5471 74.3523 60.4443C74.3189 60.3415 74.3063 60.2332 74.3153 60.1255C74.3434 59.906 74.4564 59.7062 74.6302 59.5686C74.804 59.431 75.0248 59.3665 75.2456 59.3889C75.3543 59.3955 75.4606 59.4237 75.5582 59.4718C75.6558 59.52 75.7428 59.587 75.8141 59.6691C75.8854 59.7512 75.9395 59.8466 75.9733 59.9499C76.0071 60.0531 76.0199 60.162 76.0109 60.2702Z" fill="#263238"/>
<path d="M76.4208 59.4678C76.2954 59.5598 75.7281 59.0008 74.8176 58.8759C73.9072 58.7509 73.1814 59.106 73.0957 58.9811C73.0099 58.8561 73.188 58.7443 73.5113 58.5733C73.9435 58.3575 74.4318 58.2794 74.91 58.3497C75.3816 58.4181 75.8199 58.632 76.1635 58.9614C76.4076 59.2244 76.4736 59.4678 76.4208 59.4678Z" fill="#263238"/>
<path d="M78.6953 66.8667C79.1943 66.7824 79.7021 66.7625 80.2061 66.8076C80.4436 66.8076 80.668 66.8076 80.7273 66.6563C80.7824 66.4197 80.764 66.1719 80.6746 65.946L80.2391 64.0913C79.6454 61.4606 79.2495 59.2902 79.3617 59.2705C79.9095 60.8129 80.333 62.3963 80.6284 64.0058C80.7669 64.6635 80.8989 65.2752 81.0308 65.8736C81.1421 66.1705 81.1421 66.4975 81.0308 66.7944C80.9863 66.8715 80.9244 66.9373 80.8499 66.9863C80.7755 67.0354 80.6906 67.0666 80.602 67.0772C80.4683 67.0937 80.3332 67.0937 80.1995 67.0772C79.691 67.0738 79.1852 67.003 78.6953 66.8667Z" fill="#263238"/>
<path d="M76.9451 57.6204C76.8198 57.8574 75.9291 57.6204 74.8471 57.6204C73.7652 57.6204 72.8679 57.7587 72.7492 57.5217C72.703 57.4032 72.8877 57.1926 73.2638 57.0082C73.7701 56.7833 74.3209 56.6753 74.875 56.6924C75.429 56.7095 75.972 56.8512 76.4635 57.107C76.8264 57.2913 76.9979 57.4954 76.9451 57.6204Z" fill="#263238"/>
<path d="M85.1011 56.8371C84.9164 57.0213 84.3226 56.7187 83.5705 56.6003C82.8184 56.482 82.1587 56.5412 82.0465 56.3044C81.9937 56.1926 82.1257 56.0018 82.4292 55.844C82.8415 55.6547 83.3031 55.5995 83.7487 55.6862C84.1886 55.7583 84.596 55.9625 84.9164 56.2715C85.1341 56.4951 85.1869 56.7187 85.1011 56.8371Z" fill="#263238"/>
<path d="M66.3371 61.4408C66.2447 61.3816 62.4512 59.6651 62.0026 63.7098C61.5539 67.7546 65.7169 67.3665 65.7367 67.2547C65.7565 67.1429 66.3371 61.4408 66.3371 61.4408Z" fill="#FFBE9D"/>
<path d="M64.6416 65.5579C64.6416 65.5579 64.5691 65.5974 64.4437 65.6434C64.2655 65.6953 64.074 65.6765 63.9093 65.5908C63.662 65.399 63.4705 65.1449 63.3545 64.8548C63.2386 64.5646 63.2023 64.2488 63.2496 63.94C63.2784 63.5924 63.3843 63.2554 63.5597 62.9535C63.6114 62.831 63.6927 62.7231 63.7963 62.6394C63.8998 62.5556 64.0225 62.4986 64.1534 62.4734C64.2367 62.4609 64.3218 62.4777 64.394 62.5209C64.4662 62.5641 64.5211 62.631 64.5493 62.7102C64.5889 62.8286 64.5493 62.9075 64.5493 62.9206C64.5493 62.9338 64.6416 62.8614 64.6285 62.6904C64.618 62.5878 64.5712 62.4922 64.4965 62.4208C64.4474 62.3715 64.3887 62.3327 64.324 62.3067C64.2594 62.2807 64.1901 62.268 64.1204 62.2695C63.9497 62.2838 63.7854 62.3415 63.6433 62.437C63.5013 62.5326 63.3862 62.6629 63.309 62.8154C63.0964 63.1478 62.9695 63.5273 62.9395 63.9203C62.8792 64.2774 62.9267 64.6443 63.0758 64.9745C63.225 65.3047 63.4692 65.5833 63.7774 65.775C63.883 65.818 63.9969 65.8374 64.1109 65.8317C64.2249 65.8261 64.3363 65.7955 64.4371 65.7421C64.6218 65.6566 64.6548 65.5645 64.6416 65.5579Z" fill="#EB996E"/>
<path d="M64.0828 60.9607C64.4704 60.9891 64.8429 61.1222 65.1602 61.3459C65.4776 61.5695 65.7278 61.8752 65.8839 62.23C66.0686 62.8417 66.029 63.4993 66.2071 64.111C66.3853 64.7226 66.9065 65.3277 67.5266 65.2685C67.7445 65.2333 67.949 65.1411 68.1194 65.0012C68.2898 64.8614 68.4199 64.6791 68.4965 64.4727C68.6475 64.0512 68.7147 63.6045 68.6944 63.1574C68.7274 61.2435 68.5954 59.3231 68.7933 57.4224C68.9121 55.497 69.6009 53.65 70.7726 52.1149C71.3684 51.3601 72.1566 50.7788 73.0549 50.4317C73.9532 50.0846 74.9286 49.9845 75.879 50.1418C77.1193 50.4246 78.1749 51.2401 79.3955 51.5887C80.1235 51.7924 80.8885 51.8284 81.6326 51.6939C82.3767 51.5595 83.0804 51.2581 83.6904 50.8126C83.7565 50.7642 83.8272 50.7224 83.9015 50.6877C84.1144 50.5757 84.2848 50.3977 84.3872 50.1805C84.4896 49.9634 84.5182 49.7189 84.4689 49.4841C84.4384 49.3322 84.3754 49.1887 84.2842 49.0632C82.14 46.4325 77.7725 45.1631 74.388 45.5183C72.6689 45.6902 71.0078 46.2328 69.52 47.1084C68.0322 47.984 66.7532 49.1716 65.7717 50.589C63.931 53.4368 63.7397 57.7446 64.0696 60.941" fill="#263238"/>
<path d="M80.6332 69.4981C80.1909 69.4991 79.753 69.4095 79.3467 69.2348C78.9114 69.1441 78.4986 68.9672 78.1328 68.7148C78.5862 68.7098 79.0357 68.7995 79.4523 68.9781C79.8773 69.0696 80.2791 69.2465 80.6332 69.4981Z" fill="#263238"/>
<path d="M85.225 73.7856C85.1686 74.185 85.0145 74.5644 84.7763 74.8905C84.2522 75.7092 83.5339 76.3868 82.6849 76.8635C81.846 77.3393 80.9444 77.6957 80.0064 77.9224C79.6258 78.0433 79.231 78.1141 78.832 78.1328C79.1896 77.9646 79.5631 77.8324 79.947 77.7382C80.851 77.4648 81.7226 77.0943 82.5464 76.6333C83.3601 76.1644 84.0659 75.5303 84.618 74.7721C85.0337 74.1999 85.1788 73.7658 85.225 73.7856Z" fill="#EB996E"/>
<path d="M66.8711 49.208C67.6757 49.7079 68.5235 50.1349 69.4045 50.4839C70.3214 50.7213 71.2574 50.8775 72.2018 50.9509C71.2382 51.1637 70.2348 51.1142 69.2969 50.8076C68.359 50.5009 67.5211 49.9484 66.8711 49.208Z" fill="#455A64"/>
<path d="M79.897 51.5756C79.8509 51.6216 79.3363 51.0626 78.2939 50.4904C76.9326 49.7404 75.3753 49.4194 73.8274 49.5697C72.9301 49.6551 72.0659 49.8459 71.2676 49.9511C70.5558 50.0617 69.8322 50.075 69.1168 49.9906C68.6311 49.9351 68.1595 49.7925 67.7247 49.5697C67.4212 49.4052 67.2827 49.2737 67.2893 49.254C67.8766 49.518 68.5024 49.6868 69.1432 49.7538C69.8381 49.8013 70.5363 49.7615 71.2214 49.6354C72.0065 49.517 72.8641 49.3197 73.801 49.2277C75.4143 49.0666 77.0362 49.4362 78.4192 50.2799C78.8277 50.532 79.2023 50.8347 79.5342 51.181C79.7981 51.4177 79.9102 51.5756 79.897 51.5756Z" fill="#455A64"/>
<path d="M67.2099 49.471C67.3121 48.6366 67.3121 47.793 67.2099 46.9586C67.0968 46.1206 66.7122 45.3423 66.1147 44.7422C65.7113 44.3992 65.2298 44.16 64.7123 44.0453C64.1948 43.9307 63.6569 43.9441 63.1458 44.0845C62.1158 44.3755 61.2415 45.0581 60.7114 45.9852C60.3483 46.5771 60.1501 47.2548 60.1374 47.9485C60.1246 48.6421 60.2977 49.3266 60.6388 49.9313C61.0083 50.5226 61.5797 50.9608 62.2478 51.165C62.9159 51.3693 63.6355 51.3259 64.274 51.0428C64.716 50.8126 65.0789 50.4509 65.5209 50.2141C65.7321 50.0808 65.9769 50.0101 66.2268 50.0101C66.4768 50.0101 66.7216 50.0808 66.9328 50.2141" fill="#263238"/>
<path d="M67.4879 48.3398C67.5671 48.399 67.2372 48.958 66.7292 49.5828C66.2212 50.2076 65.7198 50.6417 65.6406 50.5496C65.8549 50.1163 66.1328 49.7173 66.4653 49.3658C66.9997 48.7476 67.4153 48.2872 67.4879 48.3398Z" fill="#60A5FA"/>
<path d="M62.532 44.3411C62.2327 44.6062 61.9748 44.9143 61.7667 45.2552C61.5647 45.62 61.4817 46.0383 61.5292 46.4522C61.6352 46.957 61.8956 47.4166 62.2747 47.7676C63.0011 48.4052 63.8886 48.8327 64.8411 49.004C65.2504 49.0613 65.6513 49.1673 66.0352 49.3197C65.6202 49.3587 65.2016 49.332 64.7949 49.2408C63.7685 49.1285 62.8026 48.701 62.0306 48.0175C61.6025 47.6145 61.3176 47.0835 61.2191 46.5048C61.1775 46.0265 61.2958 45.5478 61.5555 45.1434C62.0042 44.4726 62.532 44.3411 62.532 44.3411Z" fill="#455A64"/>
<path d="M64.7227 44.0452C64.4663 44.2248 64.2431 44.4473 64.0629 44.7029C63.8836 44.9902 63.7814 45.3186 63.7661 45.6566C63.7801 46.0729 63.8908 46.4804 64.0893 46.847C64.468 47.5311 65.0123 48.1099 65.6727 48.5306C66.1807 48.8661 66.5436 48.9976 66.5238 49.0502C66.1758 49.0396 65.8377 48.9326 65.5474 48.7411C64.7966 48.3523 64.1805 47.7473 63.7792 47.0048C63.5578 46.5853 63.4445 46.1174 63.4494 45.6434C63.4807 45.2514 63.625 44.8769 63.865 44.5648C64.2609 44.0387 64.7293 43.9992 64.7227 44.0452Z" fill="#455A64"/>
<path d="M79.8878 249.466L74.3789 274.478L83.7869 274.563L90.6087 252.656L79.8878 249.466Z" fill="#FFBE9D"/>
<path d="M88.1549 264.665L84.7176 276.043C84.7176 276.043 95.1614 283.343 94.7326 285.507L72.3672 279.66L76.9854 261.712L88.1549 264.665Z" fill="#60A5FA"/>
<path d="M78.0562 273.215C77.8244 273.225 77.6044 273.32 77.4379 273.481C77.2714 273.642 77.1698 273.859 77.1523 274.089C77.1536 274.32 77.243 274.542 77.4023 274.709C77.5617 274.876 77.7789 274.977 78.01 274.99C78.2569 274.98 78.491 274.878 78.6676 274.706C78.8441 274.534 78.9506 274.302 78.9666 274.056C78.9416 273.814 78.8227 273.592 78.6354 273.436C78.4482 273.28 78.2072 273.203 77.9638 273.221" fill="#E0E0E0"/>
<g opacity="0.4">
<path d="M72.3672 279.627L72.9346 277.819L94.1784 284.093C94.1784 284.093 95.0625 284.783 94.7656 285.454L72.3672 279.627Z" fill="black"/>
</g>
<path d="M85.1095 275.99C85.1095 276.096 84.5223 275.99 83.8889 276.214C83.2556 276.438 82.8531 276.807 82.7674 276.741C82.6816 276.675 83.0049 276.082 83.7702 275.839C84.5355 275.595 85.1622 275.898 85.1095 275.99Z" fill="#263238"/>
<path d="M87.1997 277.569C87.1997 277.68 86.6785 277.746 86.1837 278.108C85.6889 278.47 85.458 278.93 85.3524 278.897C85.2468 278.864 85.3524 278.239 85.9528 277.792C86.5531 277.345 87.2261 277.47 87.1997 277.569Z" fill="#263238"/>
<path d="M87.7997 280.719C87.6941 280.719 87.6809 280.134 88.1229 279.607C88.565 279.081 89.1323 278.95 89.1521 279.088C89.1719 279.226 88.7761 279.423 88.4198 279.857C88.0636 280.291 87.9052 280.739 87.7997 280.719Z" fill="#263238"/>
<path d="M85.6028 273.314C85.5302 273.4 85.0684 273.117 84.4416 272.998C83.8148 272.88 83.2804 272.945 83.2475 272.84C83.2145 272.735 83.7819 272.465 84.5208 272.616C85.2597 272.768 85.6819 273.215 85.6028 273.314Z" fill="#263238"/>
<path d="M86.2548 271.005C85.8602 271.009 85.4722 270.904 85.1333 270.702C84.7483 270.529 84.387 270.308 84.0579 270.045C83.862 269.888 83.6768 269.719 83.5037 269.538C83.3944 269.436 83.3029 269.316 83.2332 269.183C83.1817 269.087 83.1642 268.976 83.1833 268.869C83.2025 268.762 83.2572 268.664 83.3387 268.591C83.4144 268.532 83.502 268.491 83.5954 268.469C83.6888 268.448 83.7859 268.447 83.8797 268.466C84.021 268.505 84.1563 268.563 84.2822 268.637C84.515 268.756 84.7359 268.897 84.9419 269.058C85.2751 269.326 85.5625 269.646 85.793 270.005C86.041 270.313 86.1883 270.69 86.2152 271.084C86.1559 271.084 85.9909 270.696 85.5555 270.163C85.3065 269.855 85.0207 269.579 84.7044 269.341C84.5182 269.202 84.3194 269.081 84.1106 268.979C83.8929 268.854 83.6884 268.802 83.6026 268.887C83.5169 268.973 83.5631 268.94 83.6026 269.019C83.6547 269.114 83.7215 269.201 83.8006 269.275C83.9577 269.449 84.1251 269.614 84.302 269.768C84.6036 270.032 84.9307 270.266 85.2784 270.466C85.6168 270.621 85.9432 270.801 86.2548 271.005Z" fill="#263238"/>
<path d="M86.0716 271.123C85.9449 270.748 85.9449 270.341 86.0716 269.966C86.1619 269.547 86.3225 269.147 86.5466 268.782C86.6819 268.567 86.8365 268.364 87.0084 268.177C87.1091 268.047 87.2411 267.944 87.3922 267.879C87.5433 267.813 87.7086 267.787 87.8727 267.802C87.9717 267.831 88.0606 267.887 88.1293 267.964C88.1981 268.04 88.244 268.135 88.262 268.236C88.2815 268.382 88.2815 268.53 88.262 268.677C88.236 268.935 88.1692 269.188 88.064 269.426C87.8928 269.83 87.6229 270.185 87.2789 270.459C86.6918 270.919 86.2035 270.933 86.2035 270.893C86.2035 270.854 86.6192 270.716 87.1008 270.235C87.3747 269.965 87.5883 269.64 87.7276 269.282C87.8096 269.071 87.8607 268.849 87.8793 268.624C87.8793 268.374 87.8793 268.164 87.7737 268.164C87.6682 268.164 87.4241 268.262 87.2855 268.427C87.1216 268.59 86.9735 268.768 86.8435 268.959C86.6247 269.287 86.4536 269.643 86.3355 270.018C86.131 270.683 86.131 271.123 86.0716 271.123Z" fill="#263238"/>
<path d="M55.2266 253.747L55.8005 279.344L64.9578 277.213L66.3961 254.319L55.2266 253.747Z" fill="#FFBE9D"/>
<path d="M66.8468 266.539L66.187 278.377C66.187 278.377 78.0625 283.014 78.1614 285.217L55.0703 284.796L55.3078 266.27L66.8468 266.539Z" fill="#60A5FA"/>
<path d="M59.0796 277.273C58.8584 277.34 58.6693 277.485 58.5479 277.681C58.4264 277.877 58.3809 278.111 58.4198 278.338C58.4791 278.559 58.6202 278.75 58.8147 278.872C59.0093 278.994 59.243 279.038 59.4688 278.996C59.7062 278.928 59.9098 278.775 60.0403 278.566C60.1707 278.357 60.2186 278.107 60.1747 277.865C60.0923 277.637 59.9249 277.449 59.7073 277.342C59.4898 277.234 59.2389 277.214 59.007 277.286" fill="#E0E0E0"/>
<g opacity="0.4">
<path d="M55.0625 284.823L55.1549 282.955L77.2894 284.053C77.2894 284.053 78.312 284.52 78.18 285.244L55.0625 284.823Z" fill="black"/>
</g>
<path d="M66.5814 278.292C66.5814 278.404 66.0075 278.443 65.4467 278.798C64.8859 279.154 64.5824 279.614 64.4768 279.568C64.3713 279.522 64.556 278.877 65.2422 278.463C65.9283 278.049 66.6078 278.187 66.5814 278.292Z" fill="#263238"/>
<path d="M68.976 279.331C68.976 279.443 68.5076 279.627 68.1117 280.094C67.7159 280.561 67.6037 281.067 67.4915 281.061C67.3794 281.054 67.32 280.403 67.8148 279.838C68.3096 279.272 68.976 279.226 68.976 279.331Z" fill="#263238"/>
<path d="M70.2979 282.251C70.1924 282.251 70.0473 281.712 70.3441 281.1C70.641 280.489 71.1818 280.252 71.228 280.344C71.2742 280.436 70.9378 280.765 70.7003 281.271C70.4629 281.778 70.4299 282.245 70.2979 282.251Z" fill="#263238"/>
<path d="M66.4289 275.57C66.3761 275.675 65.8615 275.511 65.2215 275.537C64.5816 275.563 64.0802 275.761 64.0274 275.669C63.9746 275.576 64.4562 275.175 65.2083 275.148C65.9604 275.122 66.4816 275.484 66.4289 275.57Z" fill="#263238"/>
<path d="M66.5157 273.175C66.1354 273.277 65.7348 273.277 65.3545 273.175C64.9399 273.092 64.5367 272.96 64.1538 272.781C63.9258 272.675 63.7053 272.554 63.494 272.419C63.3645 272.342 63.2467 272.247 63.1444 272.136C63.0737 272.054 63.0317 271.951 63.0245 271.843C63.0174 271.735 63.0456 271.628 63.1048 271.538C63.1655 271.463 63.2418 271.403 63.3284 271.36C63.4151 271.318 63.5099 271.296 63.6062 271.294C63.7539 271.293 63.9009 271.315 64.0416 271.36C64.2859 271.426 64.5242 271.511 64.7542 271.617C65.1406 271.801 65.4965 272.042 65.8097 272.333C66.3375 272.84 66.5157 273.267 66.4695 273.287C66.4233 273.307 66.1594 272.965 65.625 272.544C65.309 272.305 64.9657 272.104 64.6024 271.945C64.3879 271.858 64.1674 271.785 63.9427 271.728C63.6986 271.663 63.494 271.656 63.4281 271.768C63.3621 271.88 63.4281 271.82 63.4281 271.893C63.5008 271.973 63.5853 272.042 63.6788 272.097C63.8736 272.229 64.0763 272.35 64.2857 272.458C64.6406 272.641 65.0117 272.791 65.3941 272.906C65.7734 272.971 66.1481 273.061 66.5157 273.175Z" fill="#263238"/>
<path d="M66.3392 273.333C66.1266 273.001 66.0271 272.608 66.0555 272.215C66.0433 271.787 66.1035 271.36 66.2337 270.952C66.3147 270.711 66.4186 270.477 66.5437 270.255C66.6084 270.105 66.7111 269.974 66.8417 269.874C66.9724 269.775 67.1266 269.712 67.2893 269.69C67.3929 269.692 67.4936 269.724 67.5791 269.783C67.6646 269.841 67.7312 269.923 67.7709 270.018C67.8265 270.153 67.8642 270.295 67.883 270.439C67.9196 270.699 67.9196 270.962 67.883 271.222C67.8108 271.654 67.6316 272.061 67.3618 272.406C66.9 272.991 66.425 273.116 66.4184 273.063C66.4118 273.011 66.7813 272.794 67.1375 272.228C67.3395 271.899 67.4699 271.532 67.5202 271.15C67.5486 270.931 67.5486 270.71 67.5202 270.492C67.4872 270.249 67.4014 270.051 67.3091 270.071C67.2167 270.091 66.9924 270.249 66.8934 270.439C66.7784 270.64 66.6792 270.849 66.5965 271.064C66.4603 271.432 66.3781 271.817 66.3524 272.208C66.3392 272.892 66.425 273.32 66.3392 273.333Z" fill="#263238"/>
<path d="M85.127 155.062C85.127 155.062 103.428 202.146 101.917 215.358C100.407 228.571 90.748 271.242 90.748 271.242L75.244 265.783L81.4522 213.168L69.4844 176.956L73.2185 156.417L85.127 155.062Z" fill="#263238"/>
<path d="M49.9844 151.168C49.9844 151.168 49.9844 160.455 51.0202 164.23L51.9636 169.722C51.3039 199.975 51.482 271.261 51.482 271.261L72.198 271.511L78.6833 153.516L49.9844 151.168Z" fill="#263238"/>
<path d="M79.2176 164.546C79.2278 164.638 79.2278 164.73 79.2176 164.822C79.2176 165.019 79.2176 165.289 79.1648 165.631C79.112 166.361 79.0328 167.407 78.9273 168.748C78.7161 171.465 78.4127 175.378 78.0432 180.199C77.2977 189.867 76.3543 203.218 75.4042 218.002C74.4542 232.787 73.7351 246.145 73.1545 255.839C72.8708 260.673 72.6333 264.586 72.4947 267.309C72.409 268.624 72.3364 269.696 72.2902 270.426C72.2638 270.768 72.244 271.038 72.2308 271.235C72.2297 271.328 72.2186 271.421 72.1979 271.511C72.1893 271.419 72.1893 271.327 72.1979 271.235C72.1979 271.031 72.1979 270.762 72.1979 270.42C72.2308 269.69 72.277 268.644 72.3364 267.302C72.4683 264.573 72.6663 260.66 72.9104 255.826C73.4118 246.145 74.1309 232.761 75.0546 217.983C75.9782 203.204 76.9612 189.847 77.7661 180.179C78.1686 175.345 78.505 171.432 78.7623 168.735C78.8943 167.42 78.9932 166.354 79.0658 165.624C79.0658 165.282 79.1318 165.013 79.1516 164.815C79.1643 164.724 79.1864 164.633 79.2176 164.546Z" fill="#455A64"/>
<path d="M62.6953 167.38C62.6953 167.321 63.487 167.124 64.7405 166.69C65.4703 166.438 66.1748 166.119 66.8451 165.736C67.6587 165.276 68.3525 164.632 68.8705 163.855C69.3694 163.058 69.6828 162.159 69.7876 161.224C69.8799 160.459 69.9064 159.686 69.8668 158.916C69.8008 157.601 69.7084 156.772 69.7612 156.765C69.8378 156.945 69.8846 157.136 69.8997 157.331C69.9657 157.699 70.0515 158.232 70.1109 158.903C70.1898 159.688 70.1898 160.479 70.1109 161.264C70.0193 162.243 69.6984 163.187 69.174 164.02C68.6264 164.842 67.8859 165.519 67.0166 165.993C66.3237 166.375 65.5916 166.681 64.8329 166.907C64.1731 167.098 63.6585 167.216 63.2891 167.288C63.0967 167.348 62.8967 167.379 62.6953 167.38Z" fill="#455A64"/>
<path d="M84.4154 221.343C84.2499 221.08 84.1128 220.8 84.0063 220.508C83.7622 219.962 83.4323 219.16 83.0365 218.167C82.2448 216.194 81.2222 213.398 80.226 210.274C79.2298 207.151 78.4447 204.303 77.9367 202.224C77.6794 201.185 77.488 200.343 77.3693 199.758C77.2884 199.457 77.2354 199.148 77.2109 198.837C77.3385 199.122 77.4358 199.42 77.5012 199.725C77.6728 200.383 77.9037 201.185 78.161 202.165C78.7284 204.224 79.5464 207.065 80.5361 210.169C81.5257 213.274 82.5153 216.056 83.2476 218.061C83.5973 219.015 83.9074 219.817 84.1185 220.436C84.2456 220.728 84.345 221.032 84.4154 221.343Z" fill="#455A64"/>
<path d="M75.9648 86.3801C75.9648 86.3801 104.426 113.345 104.248 119.672C104.07 125.999 98.0795 127.63 96.0871 127.479C94.0947 127.327 78.3993 111.51 78.3993 111.51L75.9648 86.3801Z" fill="#60A5FA"/>
<g opacity="0.4">
<path d="M75.9648 86.3801C75.9648 86.3801 104.426 113.345 104.248 119.672C104.07 125.999 98.0795 127.63 96.0871 127.479C94.0947 127.327 78.3993 111.51 78.3993 111.51L75.9648 86.3801Z" fill="black"/>
</g>
<path d="M62.9062 80.3163L64.6744 73.95L78.6478 79.5994L78.3377 86.2618L71.6215 88.5176L64.7338 84.7557L62.9062 80.3163Z" fill="#60A5FA"/>
<path d="M85.1279 155.062L82.7858 101.132C82.4691 94.6801 80.3777 87.0839 76.1554 82.1842L76.1158 81.316L64.4976 79.0536C64.4976 79.0536 50.7089 82.2236 49.9238 94.1211C49.2641 103.565 48.4922 141.205 48.4922 155.062H85.1279Z" fill="#60A5FA"/>
<path d="M67.0625 79.0799C67.1986 77.8377 67.5141 76.6215 67.9992 75.4692C67.9756 76.0959 67.8624 76.716 67.6627 77.3108C67.5492 77.9262 67.3471 78.5221 67.0625 79.0799Z" fill="#263238"/>
<path d="M72.3105 77.0476C72.3431 77.6607 72.2808 78.2752 72.1258 78.8694C72.0647 79.4794 71.9089 80.0762 71.6641 80.6386C71.7064 79.4158 71.9287 78.2059 72.3237 77.0476H72.3105Z" fill="#263238"/>
<path d="M76.3795 78.8301C76.4151 79.3811 76.3931 79.9344 76.3137 80.4809C76.324 81.0353 76.2709 81.5892 76.1557 82.1316C75.9329 81.0353 76.0103 79.8993 76.3795 78.8432V78.8301Z" fill="#263238"/>
<g opacity="0.2">
<path d="M55.7812 102.217C60.4064 110.949 65.9343 119.175 72.2749 126.762C73.9111 128.735 75.6528 130.761 77.9289 131.977C80.2051 133.194 81.6565 132.753 83.8007 131.32C81.8752 130.941 80.0531 130.156 78.4567 129.018C76.3376 127.531 74.4654 125.722 72.9083 123.658C67.3202 116.739 61.8641 109.596 56.2827 102.671" fill="black"/>
</g>
<path d="M61.371 120.757C60.7209 121.449 59.9716 122.04 59.1477 122.513C58.3833 123.075 57.5381 123.519 56.6406 123.829C57.3649 123.223 58.1421 122.684 58.9629 122.217C59.7192 121.658 60.5252 121.17 61.371 120.757Z" fill="#263238"/>
<path d="M55.062 114.509C54.9124 113.774 54.8703 113.021 54.9369 112.273C54.8975 111.523 54.9707 110.772 55.1542 110.044C55.3119 110.778 55.3541 111.532 55.2793 112.28C55.3253 113.03 55.252 113.782 55.062 114.509Z" fill="#263238"/>
<path d="M55.242 138.16C54.4906 137.563 53.8688 136.82 53.4145 135.976C52.8673 135.183 52.4859 134.288 52.293 133.345C52.3919 133.306 52.8933 134.463 53.7114 135.779C54.5295 137.094 55.3212 138.094 55.242 138.16Z" fill="#263238"/>
<path d="M69.1139 134.444C68.2236 135.071 67.296 135.644 66.3364 136.16C65.4377 136.771 64.5036 137.329 63.5391 137.831C64.3138 137.044 65.2036 136.379 66.178 135.858C67.083 135.247 68.0719 134.771 69.1139 134.444Z" fill="#263238"/>
<path d="M66.6144 129.116C65.8508 128.858 65.1269 128.495 64.4636 128.038C63.7394 127.68 63.0724 127.216 62.4844 126.663C63.248 126.922 63.9718 127.285 64.6351 127.742C65.3569 128.104 66.0233 128.567 66.6144 129.116Z" fill="#263238"/>
<path d="M67.043 123.224C67.2603 122.611 67.5866 122.043 68.0062 121.546C68.3319 120.988 68.7515 120.49 69.2465 120.073C69.0284 120.683 68.7021 121.249 68.2833 121.744C67.9588 122.305 67.5392 122.806 67.043 123.224Z" fill="#263238"/>
<path d="M56.3017 154.108C55.5935 153.723 54.9447 153.238 54.3752 152.668C53.7332 152.182 53.1625 151.608 52.6797 150.965C53.3889 151.351 54.0379 151.838 54.6061 152.412C55.2453 152.899 55.8156 153.469 56.3017 154.108Z" fill="#263238"/>
<path d="M65.3352 150.169C64.623 151.514 63.5493 152.634 62.2344 153.405C62.6906 152.813 63.2008 152.265 63.7584 151.767C64.2314 151.185 64.7594 150.65 65.3352 150.169Z" fill="#263238"/>
<path d="M51.3859 117.883C51.5685 119.636 51.5198 121.405 51.2411 123.145C51.0923 122.276 51.0591 121.391 51.1423 120.514C51.1102 119.63 51.1921 118.746 51.3859 117.883Z" fill="#263238"/>
<path d="M53.1429 103.283C53.1429 103.382 52.5491 103.434 51.8234 103.401C51.0977 103.368 50.5039 103.27 50.5039 103.178C51.3776 102.981 52.2877 103.018 53.1429 103.283Z" fill="#263238"/>
<path d="M55.3602 87.4851C55.0112 88.147 54.5666 88.7541 54.0407 89.2872C53.5891 89.8908 53.0486 90.423 52.4375 90.8656C53.2431 89.5964 54.2375 88.4566 55.3866 87.4851H55.3602Z" fill="#263238"/>
<path d="M63.8852 85.8475C63.6191 85.2147 63.4309 84.5522 63.3245 83.8744C63.1047 83.2361 62.963 82.5736 62.9023 81.9014C63.288 82.4715 63.5466 83.1174 63.6609 83.7955C63.8817 84.4557 63.9582 85.1554 63.8852 85.8475Z" fill="#263238"/>
<path d="M86.012 82.4078C84.0328 82.5065 83.8282 82.4078 81.6181 82.6446C81.2866 82.6655 80.96 82.7342 80.6483 82.8485C80.4904 82.9075 80.3485 83.0024 80.234 83.1257C80.1194 83.249 80.0354 83.3973 79.9885 83.5588C79.8632 84.1704 80.5031 84.69 81.1167 84.8018C81.7302 84.9136 82.3768 84.7689 82.9904 84.8807C83.9605 85.0067 84.854 85.473 85.5106 86.1961C86.8697 87.9389 88.1496 87.0116 89.0666 87.6101L91.2834 86.0646L90.3135 82.7433L85.9856 82.4078" fill="#FFBE9D"/>
<path d="M89.2985 87.6034C89.0869 87.5196 88.865 87.4643 88.6388 87.439C88.021 87.4635 87.4035 87.3857 86.8113 87.2088C86.4212 87.028 86.0763 86.7629 85.8019 86.4327C85.5208 86.0594 85.1632 85.75 84.7529 85.5251C84.2953 85.2786 83.8007 85.1075 83.2882 85.0187C82.7254 84.9556 82.1587 84.9336 81.5927 84.9529C81.2793 84.9498 80.9735 84.857 80.7115 84.6856C80.4495 84.5142 80.2424 84.2714 80.1148 83.9861C80.0669 83.8356 80.0575 83.6755 80.0875 83.5205C80.1174 83.3654 80.1858 83.2202 80.2864 83.0982C80.475 82.8816 80.7224 82.724 80.9989 82.6445C81.4787 82.5403 81.9664 82.4765 82.4569 82.4537C82.9056 82.4208 83.3344 82.3945 83.7171 82.3814C84.489 82.3814 85.1091 82.3814 85.538 82.3814C85.7574 82.361 85.9783 82.361 86.1977 82.3814C85.982 82.4359 85.7605 82.4646 85.538 82.4669C85.1091 82.4669 84.4824 82.5195 83.7171 82.5655L82.4701 82.6708C81.9995 82.7041 81.532 82.7723 81.0715 82.8746C80.6228 82.9996 80.194 83.4337 80.359 83.894C80.473 84.1287 80.6511 84.3266 80.8728 84.4651C81.0945 84.6035 81.3509 84.6768 81.6125 84.6767C82.1875 84.6552 82.7633 84.6794 83.3344 84.749C83.8701 84.8501 84.3866 85.0343 84.865 85.2949C85.2968 85.5414 85.6721 85.8752 85.9668 86.2749C86.2221 86.5892 86.5444 86.8431 86.9102 87.018C87.4803 87.2008 88.0733 87.3026 88.6718 87.3206C88.8388 87.3425 89 87.3961 89.1468 87.4784C89.2523 87.5573 89.2985 87.5902 89.2985 87.6034Z" fill="#EB996E"/>
<path d="M83.9531 80.5136L95.1688 74.509C95.3231 74.4249 95.5032 74.4013 95.674 74.4426C95.8449 74.484 95.9941 74.5874 96.0925 74.7326C96.1497 74.8154 96.1886 74.9095 96.2066 75.0084C96.2247 75.1074 96.2214 75.209 96.1971 75.3067C96.1728 75.4043 96.1279 75.4956 96.0655 75.5747C96.0031 75.6537 95.9246 75.7186 95.8352 75.7652L85.5893 81.1187L83.9531 80.5136Z" fill="#263238"/>
<path d="M48.7501 145.243C48.6322 145.288 48.5108 145.323 48.3872 145.348C48.0333 145.435 47.6741 145.499 47.3118 145.539C45.9956 145.703 44.6626 145.678 43.3533 145.466C41.3895 145.151 39.4893 144.522 37.7257 143.605C36.6786 143.075 35.6827 142.449 34.7502 141.737C34.242 141.365 33.7733 140.942 33.3516 140.475C33.1288 140.215 32.9706 139.906 32.8898 139.574C32.8153 139.217 32.8789 138.846 33.0679 138.534C33.2605 138.249 33.5181 138.013 33.8197 137.847C34.1213 137.68 34.4583 137.586 34.803 137.574C35.4311 137.542 36.0608 137.571 36.6833 137.66C39.8363 138.036 42.8406 139.209 45.4117 141.067C46.529 141.811 47.4884 142.768 48.2355 143.881C48.4286 144.19 48.5816 144.521 48.6907 144.868C48.7393 144.987 48.7683 145.114 48.7764 145.243C48.5972 144.785 48.3764 144.345 48.1167 143.927C47.3418 142.86 46.3727 141.948 45.26 141.238C42.7078 139.438 39.7426 138.307 36.6371 137.949C36.0386 137.864 35.4331 137.837 34.8294 137.87C34.5381 137.876 34.2523 137.951 33.9955 138.088C33.7387 138.225 33.518 138.421 33.3516 138.659C33.2194 138.912 33.173 139.2 33.2194 139.482C33.2658 139.763 33.4025 140.021 33.6089 140.218C34.0105 140.661 34.4522 141.066 34.9284 141.428C35.8454 142.128 36.821 142.749 37.8444 143.283C39.5752 144.197 41.4383 144.836 43.3665 145.177C44.6719 145.414 46.0032 145.476 47.325 145.361C48.2355 145.328 48.7435 145.197 48.7501 145.243Z" fill="#60A5FA"/>
<path d="M47.2783 142.75C47.2005 142.678 47.1319 142.596 47.0738 142.507L46.5394 141.783C45.8949 140.88 45.3003 139.943 44.7581 138.975C43.9341 137.533 43.3902 135.949 43.1549 134.306C43.026 133.326 43.0684 132.331 43.2803 131.366C43.3322 131.111 43.4028 130.86 43.4914 130.616C43.5639 130.35 43.6822 130.098 43.8411 129.873C43.9246 129.737 44.0408 129.625 44.1791 129.546C44.3173 129.466 44.4733 129.423 44.6327 129.419C44.7917 129.436 44.9442 129.491 45.0774 129.579C45.2106 129.667 45.3206 129.786 45.3981 129.925C47.3117 133.08 48.4636 136.635 48.7628 140.31C48.8477 141.416 48.8477 142.526 48.7628 143.631C48.7628 144.02 48.6902 144.322 48.6704 144.526C48.6682 144.632 48.6481 144.736 48.611 144.835C48.5822 144.432 48.5822 144.028 48.611 143.625C48.6385 142.527 48.5944 141.429 48.4791 140.336C48.1148 136.723 46.9522 133.235 45.0748 130.123C45.027 130.028 44.9571 129.947 44.871 129.885C44.7849 129.823 44.685 129.783 44.58 129.768C44.4766 129.774 44.3765 129.807 44.289 129.862C44.2014 129.917 44.129 129.993 44.0786 130.083C43.8295 130.504 43.6554 130.965 43.564 131.445C43.3636 132.374 43.319 133.329 43.432 134.273C43.6479 135.886 44.1577 137.446 44.9362 138.876C45.596 140.106 46.1963 141.06 46.612 141.718L47.0936 142.481C47.2387 142.645 47.2915 142.744 47.2783 142.75Z" fill="#60A5FA"/>
<path d="M31.332 158.12C32.471 158.58 33.6903 158.81 34.9191 158.797C36.1479 158.783 37.3618 158.527 38.4903 158.041C39.9303 157.419 41.2363 156.526 42.3366 155.411C44.3075 153.35 45.8878 150.95 47.001 148.327C47.4364 147.374 47.7927 146.578 48.0698 145.96C48.1831 145.662 48.3245 145.376 48.492 145.105C48.423 145.416 48.3236 145.72 48.1951 146.012C47.9774 146.585 47.6608 147.42 47.2253 148.426C46.1664 151.111 44.5984 153.567 42.6071 155.661C41.4742 156.789 40.129 157.683 38.6486 158.291C37.4321 158.784 36.1282 159.025 34.8155 159.002C33.9339 158.983 33.0618 158.816 32.2359 158.508C32.0086 158.427 31.788 158.328 31.5761 158.212C31.4898 158.197 31.4071 158.166 31.332 158.12Z" fill="#60A5FA"/>
<path d="M45.8873 168.334C45.784 168.037 45.7111 167.731 45.6696 167.42C45.6388 167.271 45.6058 167.106 45.5706 166.927C45.5706 166.736 45.5377 166.539 45.5113 166.328C45.5113 165.901 45.4057 165.414 45.4123 164.875C45.3857 162.059 45.6065 159.247 46.072 156.469C46.5603 153.181 47.2068 150.3 47.7148 148.202C47.9655 147.157 48.1898 146.315 48.3746 145.73C48.4426 145.424 48.5375 145.124 48.6583 144.835C48.6388 145.149 48.5857 145.46 48.4999 145.762L47.9721 148.255C47.5235 150.36 46.9231 153.273 46.4349 156.522C45.9813 159.282 45.7321 162.072 45.6894 164.868C45.6762 167.012 45.9731 168.321 45.8873 168.334Z" fill="#60A5FA"/>
<path d="M60.5312 80.5137C60.5312 80.5137 60.5972 80.4545 60.749 80.3624C60.9576 80.2333 61.1786 80.1254 61.4087 80.0402C62.3125 79.7549 63.2717 79.6895 64.206 79.8494C65.5909 80.0707 66.9117 80.5866 68.0788 81.3621C69.4872 82.3084 70.7938 83.3972 71.9779 84.6111C74.156 86.8035 75.8366 89.4366 76.9062 92.3323C77.1239 92.8847 77.2558 93.3977 77.3944 93.8449C77.5329 94.2921 77.6055 94.6933 77.6649 95.0156C77.7389 95.3491 77.7874 95.6876 77.81 96.0284C77.7308 96.0284 77.5461 94.5881 76.6818 92.4178C75.5563 89.5887 73.8713 87.0143 71.7271 84.8478C70.5575 83.6526 69.2762 82.5713 67.9006 81.6186C66.7749 80.8585 65.5035 80.339 64.1665 80.0928C63.2663 79.9153 62.3377 79.94 61.4483 80.1651C60.8611 80.3164 60.551 80.5137 60.5312 80.5137Z" fill="white"/>
<path d="M76.8952 126.262C76.8952 126.262 76.9942 141.705 74.4212 142.566C71.1752 143.651 48.5195 142.566 48.5195 142.566V148.11C48.5195 148.11 71.0763 146.663 72.9302 149.557C74.6785 152.293 90.8357 202.527 94.0882 217.614H104.281C104.281 217.614 98.8714 191.702 96.9581 185.092C95.9355 181.573 92.5444 170.386 89.4766 161.659C86.6199 153.532 85.2479 144.96 85.4257 136.351L85.6699 124.868L83.9017 95.2721H77.3834L76.8952 126.262Z" fill="#60A5FA"/>
<g opacity="0.7">
<path d="M76.8952 126.262C76.8952 126.262 76.9942 141.705 74.4212 142.566C71.1752 143.651 48.5195 142.566 48.5195 142.566V148.11C48.5195 148.11 71.0763 146.663 72.9302 149.557C74.6785 152.293 90.8357 202.527 94.0882 217.614H104.281C104.281 217.614 98.8714 191.702 96.9581 185.092C95.9355 181.573 92.5444 170.386 89.4766 161.659C86.6199 153.532 85.2479 144.96 85.4257 136.351L85.6699 124.868L83.9017 95.2721H77.3834L76.8952 126.262Z" fill="white"/>
</g>
<path d="M97.4772 162.349C97.7647 162.227 98.0238 162.048 98.2383 161.821C98.4529 161.595 98.6183 161.327 98.7241 161.034C98.825 160.735 98.8613 160.418 98.8306 160.104C98.7999 159.79 98.7029 159.486 98.546 159.212C98.1633 158.554 97.4112 158.041 97.2595 157.278C97.0086 157.486 96.8498 157.784 96.8175 158.107C96.3754 157.673 96.8636 156.792 96.382 156.377C96.2368 156.294 96.0696 156.256 95.9024 156.269C95.7352 156.282 95.5758 156.345 95.4452 156.45C95.1271 156.676 94.8644 156.971 94.677 157.312C94.4896 157.654 94.3823 158.034 94.3632 158.423C94.3149 159.019 94.4176 159.617 94.662 160.163C94.9064 160.709 95.2847 161.185 95.7619 161.547C96.2785 161.853 96.7785 162.187 97.2595 162.546" fill="#60A5FA"/>
<path d="M96.4765 162.632L95.7376 172.109C95.7053 172.258 95.7258 172.413 95.7955 172.549C95.8653 172.684 95.98 172.791 96.1201 172.852C96.2602 172.912 96.417 172.922 96.5638 172.88C96.7106 172.839 96.8383 172.747 96.9251 172.622C97.0231 172.51 97.0831 172.369 97.0966 172.221L97.8224 162.75L96.4765 162.632Z" fill="#263238"/>
<path d="M96.4743 162.633L96.25 161.889L98.1501 161.961L97.8334 162.731L96.4743 162.633Z" fill="#E0E0E0"/>
<path d="M93.0106 169.367C92.938 169.077 91.6911 159.916 91.3084 156.785C91.2916 156.655 91.3027 156.523 91.341 156.398C91.3794 156.273 91.4441 156.157 91.5309 156.059C91.6177 155.96 91.7246 155.881 91.8444 155.828C91.9641 155.774 92.0941 155.746 92.2255 155.746C92.444 155.746 92.6555 155.824 92.8222 155.964C92.9889 156.105 93.1 156.301 93.1359 156.515L95.2867 169.715L93.0106 169.367Z" fill="#263238"/>
<path d="M88.2695 166.585H98.9706C98.9706 166.585 102.269 180.462 96.9254 185.092L93.6267 184.506L88.2695 166.585Z" fill="#60A5FA"/>
<g opacity="0.7">
<path d="M88.2695 166.585H98.9706C98.9706 166.585 102.269 180.462 96.9254 185.092L93.6267 184.506L88.2695 166.585Z" fill="white"/>
</g>
<path d="M97.3472 184.427C97.1156 184.504 96.8697 184.526 96.6281 184.493C95.9599 184.435 95.3174 184.209 94.761 183.836C93.9364 183.295 93.2406 182.581 92.7224 181.744C92.0917 180.742 91.5168 179.705 91.0005 178.64C90.0499 176.715 89.2407 174.723 88.5792 172.681C88.3285 171.899 88.157 171.254 88.0382 170.807C87.9676 170.578 87.9234 170.342 87.9062 170.103C88.0212 170.311 88.1098 170.532 88.1701 170.761L88.8299 172.596C89.5523 174.614 90.387 176.59 91.3303 178.515C91.8911 179.626 92.4321 180.692 93.0061 181.599C93.4901 182.409 94.1371 183.11 94.9062 183.658C95.4315 184.019 96.031 184.26 96.6611 184.362C97.1163 184.427 97.3472 184.375 97.3472 184.427Z" fill="#263238"/>
<path d="M99.8945 113.043C99.924 112.438 100.06 111.844 100.297 111.287C100.419 111.008 100.612 110.766 100.858 110.586C101.103 110.406 101.392 110.293 101.696 110.261C101.845 110.254 101.994 110.279 102.133 110.333C102.272 110.387 102.399 110.47 102.504 110.576C102.609 110.682 102.69 110.809 102.743 110.948C102.796 111.088 102.819 111.236 102.811 111.385C102.694 111.725 102.51 112.038 102.27 112.306C101.649 113.24 101.768 114.463 101.834 115.594C101.9 116.726 101.834 118.002 100.937 118.718" fill="#FFBE9D"/>
<path d="M57.0999 88.8531C56.0867 89.6342 55.2422 90.6112 54.6169 91.7255C53.9916 92.8399 53.5985 94.0686 53.4611 95.338C53.3238 96.6075 53.4449 97.8915 53.8174 99.1131C54.1898 100.335 54.8059 101.469 55.6287 102.447L75.9555 126.617C78.0919 129.125 81.0304 130.821 84.2753 131.42C87.5203 132.019 90.8732 131.484 93.7686 129.906C96.2335 128.552 98.2442 126.505 99.5499 124.019C100.856 121.534 101.399 118.721 101.112 115.93L96.1569 94.2264L86.1947 95.7917L87.4482 112.306L70.4532 90.5302C68.9066 88.5495 66.6354 87.2608 64.1374 86.9464C61.6393 86.6321 59.1181 87.3177 57.1263 88.8531H57.0999Z" fill="#60A5FA"/>
<path d="M100.091 123.473C97.531 123.006 97.0823 122.592 94.5291 122.158C93.7638 122.02 92.7742 121.579 93.0711 120.77C93.1569 120.568 93.3028 120.396 93.4891 120.279C93.6753 120.161 93.8932 120.103 94.1135 120.113C95.1097 120.146 96.7525 120.652 97.6761 120.698C97.9136 120.698 97.8938 120.474 97.7817 120.317C96.2133 119.928 94.6159 119.666 93.0051 119.534C92.7813 119.511 92.5688 119.425 92.3936 119.284C92.2183 119.143 92.0878 118.955 92.0179 118.742C91.948 118.529 91.9418 118.3 91.9999 118.083C92.058 117.866 92.1781 117.671 92.3454 117.521C92.5462 117.398 92.7712 117.32 93.0051 117.291C94.0277 117.39 94.0277 117.39 95.1163 117.528C98.1709 117.903 97.7553 117.324 97.7553 117.324C97.7553 117.094 94.2784 116.929 92.4773 116.798C92.0937 116.82 91.716 116.696 91.4217 116.449C91.2854 116.264 91.2169 116.037 91.2277 115.808C91.2385 115.578 91.3279 115.359 91.4811 115.187C91.6255 115.004 91.8049 114.852 92.0087 114.739C92.2126 114.626 92.4369 114.555 92.6687 114.529C94.6479 114.397 101.146 114.805 101.146 114.805C101.146 114.805 102.05 115.917 101.905 118.271C101.67 120.112 101.052 121.884 100.091 123.473Z" fill="#FFBE9D"/>
<path d="M91.2769 130.958L90.9998 131.011L90.2015 131.129C89.4956 131.228 88.4532 131.379 87.1007 131.458C85.4517 131.58 83.7938 131.433 82.1922 131.024C80.0973 130.356 78.1927 129.2 76.6371 127.65C74.7501 125.806 72.9661 123.861 71.2932 121.823C69.4657 119.646 67.5524 117.298 65.5534 114.805C63.5543 112.313 61.4893 109.682 59.3584 106.913L56.1322 102.71C55.8551 102.355 55.5846 101.994 55.3141 101.638L54.9249 101.073C54.7891 100.885 54.6679 100.687 54.562 100.481C54.1051 99.6715 53.7737 98.7979 53.579 97.8897C53.374 96.9841 53.3094 96.0525 53.3877 95.1274C53.424 94.6698 53.4901 94.215 53.5856 93.766C53.6903 93.3184 53.827 92.8788 53.9946 92.4506C54.1545 92.0268 54.3418 91.6138 54.5554 91.2142C54.7807 90.8252 55.032 90.4516 55.3075 90.0961C55.8428 89.3861 56.4784 88.7569 57.1944 88.2283C57.8983 87.7068 58.668 87.2801 59.4837 86.959C61.8679 86.0682 64.508 86.1485 66.8333 87.1826C68.2734 87.8455 69.53 88.8477 70.4949 90.1027L73.1735 93.5884L77.983 99.8496L84.9367 108.926C85.7482 109.991 86.375 110.826 86.8104 111.405L87.2986 112.063C87.3538 112.136 87.4045 112.213 87.4504 112.293L87.2722 112.082L86.7708 111.425L84.851 108.978L77.8313 99.9482L72.9953 93.7068L70.297 90.2869C69.3535 89.0667 68.1262 88.0938 66.7211 87.4522C65.2406 86.79 63.6123 86.5247 61.9973 86.6828C61.1661 86.761 60.3494 86.9513 59.5695 87.2484C58.7786 87.5616 58.0313 87.975 57.3461 88.4782C56.6508 88.9927 56.0332 89.604 55.512 90.2934C55.2489 90.6429 55.0066 91.0074 54.7863 91.3852C54.5772 91.7715 54.3942 92.1714 54.2387 92.5822C54.0801 92.9965 53.9479 93.4205 53.8429 93.8515C53.7531 94.2858 53.6892 94.725 53.6516 95.1669C53.5779 96.0677 53.6402 96.9744 53.8363 97.8568C54.0262 98.7375 54.3488 99.5846 54.7929 100.369C55.2537 101.137 55.7697 101.872 56.3367 102.566L59.5629 106.768C61.6873 109.511 63.7523 112.148 65.7447 114.661C67.7371 117.173 69.6438 119.514 71.4647 121.691C73.1164 123.728 74.8784 125.673 76.7427 127.518C78.2699 129.06 80.1453 130.215 82.212 130.886C83.7935 131.309 85.4337 131.471 87.0677 131.366C88.3872 131.307 89.4626 131.168 90.1685 131.089L90.9734 130.997C91.0735 130.977 91.1749 130.964 91.2769 130.958Z" fill="#263238"/>
<path d="M88.9263 120.139C89.1369 118.725 89.1191 117.286 88.8735 115.877C88.5328 114.482 87.9716 113.15 87.2109 111.931C87.5285 112.221 87.796 112.561 88.0026 112.937C89.0786 114.713 89.5161 116.8 89.243 118.857C89.2126 119.299 89.1055 119.733 88.9263 120.139Z" fill="#263238"/>
<path d="M63.1054 98.6196C62.1961 98.3172 61.3258 97.9088 60.5126 97.4029C59.6424 96.9965 58.825 96.4864 58.0781 95.8837C58.9893 96.1867 59.8617 96.5951 60.6775 97.1004C61.545 97.5079 62.3601 98.018 63.1054 98.6196Z" fill="#263238"/>
<path d="M70.0045 102.737C69.8423 101.715 69.8423 100.674 70.0045 99.6522C70.0663 98.618 70.2889 97.5996 70.6641 96.6334C70.6341 97.6583 70.5349 98.68 70.3673 99.6917C70.3119 100.713 70.1908 101.731 70.0045 102.737Z" fill="#263238"/>
<path d="M70.7731 111.01C69.0945 110.869 67.4766 110.318 66.0625 109.406C66.8731 109.589 67.6658 109.845 68.431 110.169C69.2329 110.387 70.016 110.668 70.7731 111.01Z" fill="#263238"/>
<path d="M78.7466 115.489C78.6696 114.539 78.7051 113.583 78.8521 112.642C78.8894 111.687 79.04 110.74 79.3006 109.82C79.3775 110.772 79.3421 111.73 79.1951 112.674C79.1621 113.628 79.0114 114.573 78.7466 115.489Z" fill="#263238"/>
<path d="M80.2573 123.684C79.5195 123.074 78.8553 122.381 78.2781 121.619C77.6113 120.929 77.0289 120.163 76.543 119.337C77.2816 119.943 77.946 120.634 78.5222 121.395C79.19 122.086 79.7725 122.855 80.2573 123.684Z" fill="#263238"/>
<path d="M91.1135 124.532C90.2806 124.732 89.4369 124.884 88.5866 124.987C87.758 125.203 86.9162 125.366 86.0664 125.474C86.821 125.038 87.6556 124.758 88.5207 124.651C89.3674 124.433 90.2503 124.393 91.1135 124.532Z" fill="#263238"/>
<path d="M92.418 109.498C92.6438 108.718 92.9792 107.974 93.4142 107.288C93.7569 106.548 94.2009 105.86 94.7337 105.242C94.1751 106.762 93.402 108.195 92.4378 109.498H92.418Z" fill="#263238"/>
<path d="M92.5094 101.02C91.8925 100.869 91.3088 100.606 90.7875 100.244C90.2083 99.9768 89.6812 99.6094 89.2305 99.1589C89.8481 99.317 90.4332 99.5819 90.959 99.9416C91.5357 100.207 92.0607 100.572 92.5094 101.02Z" fill="#263238"/>
<path d="M81.835 77.3567C80.4561 78.1328 79.5061 80.0992 78.6616 81.3883C78.3793 81.7668 78.1834 82.2023 78.0876 82.6642C78.0707 83.1639 78.182 83.6596 78.4109 84.1045C78.7078 84.7622 79.031 85.4199 79.3543 86.1236C79.4467 86.3143 79.5654 86.5248 79.7766 86.5642C79.9877 86.6037 80.2516 86.3406 80.3439 86.0907C80.5125 85.4468 80.5924 84.783 80.5814 84.1177C80.5786 83.7837 80.6584 83.4541 80.8137 83.1581C80.9691 82.8622 81.1952 82.6089 81.4721 82.4208" fill="#EB996E"/>
<path d="M84.3281 82.4866L82.8965 81.5264C82.8093 81.4625 82.7006 81.435 82.5934 81.4497C82.4862 81.4644 82.389 81.5203 82.3225 81.6053L81.6627 82.48L82.1509 84.5912C82.7315 87.3074 80.6731 86.9786 80.6731 86.9786L80.4884 86.459L79.4328 83.1706C79.1755 81.5856 79.2942 81.3883 80.0134 80.1979L81.6034 77.6855C81.7632 77.423 82.0067 77.2215 82.2949 77.113C82.583 77.0046 82.8993 76.9954 83.1934 77.087C85.6872 77.8697 91.0443 79.2508 91.7701 81.2896C93.0368 84.9989 94.3497 94.3315 94.3761 94.5025L86.9869 95.6403L86.6438 89.3462C85.9692 88.9692 85.4451 88.3725 85.1594 87.656C84.7871 85.9428 84.5096 84.2105 84.3281 82.4669" fill="#FFBE9D"/>
<path d="M89.5468 83.4666C89.5468 83.4666 89.4742 83.5982 89.2829 83.7758C89.0029 84.0402 88.6636 84.2341 88.2933 84.3414C88.028 84.4081 87.7517 84.4193 87.4818 84.3742C87.1631 84.3168 86.8728 84.1548 86.6571 83.9139C86.1953 83.414 86.0963 82.6774 85.6807 82.1579C85.4488 81.9212 85.1818 81.7216 84.889 81.5659C84.6112 81.4078 84.3249 81.265 84.0313 81.1384C83.7905 81.0161 83.5231 80.955 83.2528 80.9609C83.0307 81.0452 82.8301 81.1778 82.6657 81.3489C82.0059 82.0066 81.6694 82.4933 81.6298 82.4538C81.5903 82.4144 81.6892 82.3157 81.841 82.0987C82.0346 81.7862 82.2553 81.4913 82.5007 81.2174C82.6797 81.0095 82.9059 80.8472 83.1605 80.7438C83.2435 80.7306 83.3281 80.7306 83.4112 80.7438L83.6421 80.7899C83.7944 80.8292 83.9442 80.8775 84.0907 80.9346C84.3991 81.0568 84.6989 81.1996 84.988 81.3621C85.3118 81.5333 85.6058 81.7554 85.8588 82.0197C86.3338 82.6314 86.4196 83.3351 86.8155 83.7823C86.9913 83.9677 87.2138 84.1028 87.4598 84.1733C87.7058 84.2439 87.9663 84.2474 88.2141 84.1835C88.5635 84.1011 88.8916 83.9465 89.1773 83.7297C89.428 83.5456 89.5336 83.4469 89.5468 83.4666Z" fill="#EB996E"/>
<path d="M88.8341 85.776C88.1165 85.8121 87.3979 85.7253 86.7097 85.5193C86.0138 85.3943 85.3445 85.1516 84.7305 84.8018C85.4323 84.8961 86.1252 85.048 86.8021 85.256C87.4913 85.3791 88.1705 85.5529 88.8341 85.776Z" fill="#EB996E"/>
<path d="M85.7229 80.8951C85.7229 80.8622 85.8614 80.8228 86.0659 80.8951C86.2018 80.9512 86.3217 81.04 86.4148 81.1536C86.5078 81.2672 86.5713 81.4019 86.5994 81.5459C86.6274 81.6899 86.6193 81.8385 86.5758 81.9786C86.5322 82.1187 86.4544 82.2458 86.3496 82.3486C86.1846 82.5065 86.0461 82.5196 86.0329 82.4933C86.0197 82.467 86.1055 82.3815 86.1978 82.2302C86.3226 82.0351 86.3696 81.8005 86.3298 81.5725C86.281 81.3572 86.1542 81.1675 85.9736 81.0398C85.835 80.9741 85.7163 80.9346 85.7229 80.8951Z" fill="#EB996E"/>
<path d="M74.3748 85.7751C74.1191 85.5839 73.8252 85.4495 73.5129 85.3811C73.2007 85.3127 72.8774 85.3118 72.5648 85.3785C72.2522 85.4452 71.9575 85.5779 71.7007 85.7677C71.4439 85.9575 71.2309 86.2 71.0761 86.4788C70.6934 87.1365 70.6538 88.0507 70.0667 88.5702C70.3744 88.6795 70.7127 88.6653 71.0101 88.5308C70.865 89.1293 69.8358 89.1885 69.75 89.787C69.7509 89.9541 69.8033 90.1168 69.9 90.2533C69.9968 90.3897 70.1333 90.4933 70.291 90.5499C70.6463 90.7019 71.0309 90.7742 71.4173 90.7617C71.8038 90.7492 72.1828 90.6522 72.5275 90.4775C73.0659 90.2124 73.529 89.8171 73.8748 89.3277C74.2205 88.8383 74.4378 88.2704 74.5068 87.6758C74.5043 87.0761 74.5351 86.4766 74.5991 85.8803" fill="#455A64"/>
<path d="M75.1272 86.5052L83.7039 82.2828C83.8467 82.2325 83.9677 82.1347 84.0467 82.0059C84.1257 81.8771 84.1578 81.7251 84.1377 81.5755C84.1176 81.4258 84.0464 81.2877 83.9362 81.1841C83.826 81.0806 83.6834 81.018 83.5324 81.0069C83.3847 80.9765 83.231 80.9974 83.0969 81.0661L74.5664 85.2884L75.1272 86.5052Z" fill="#263238"/>
<path d="M75.127 86.505L74.6058 87.0772L73.6953 85.4199L74.52 85.2883L75.127 86.505Z" fill="#E0E0E0"/>
<path d="M261.001 239.324C261.628 237.154 262.98 235.063 265.045 234.168C267.11 233.274 269.703 233.773 271.913 234.569C274.123 235.365 276.294 236.444 278.643 236.588C280.991 236.733 283.637 235.622 284.343 233.385C285.003 231.281 283.729 229.038 282.139 227.512C280.457 225.898 278.395 224.732 276.142 224.122C273.889 223.511 271.518 223.476 269.248 224.019C266.978 224.562 264.881 225.666 263.152 227.23C261.422 228.793 260.115 230.765 259.352 232.964" fill="#60A5FA"/>
<g opacity="0.3">
<path d="M261.001 239.324C261.628 237.154 262.98 235.063 265.045 234.168C267.11 233.274 269.703 233.773 271.913 234.569C274.123 235.365 276.294 236.444 278.643 236.588C280.991 236.733 283.637 235.622 284.343 233.385C285.003 231.281 283.729 229.038 282.139 227.512C280.457 225.898 278.395 224.732 276.142 224.122C273.889 223.511 271.518 223.476 269.248 224.019C266.978 224.562 264.881 225.666 263.152 227.23C261.422 228.793 260.115 230.765 259.352 232.964" fill="black"/>
</g>
<path d="M242.404 248.723C238.96 245.434 239.106 239.785 240.847 235.365C242.589 230.945 246.317 227.565 250.506 225.329C254.594 223.19 259.116 222.001 263.73 221.852C268.345 221.703 272.934 222.597 277.153 224.467C275.082 224.553 273.064 225.145 271.276 226.191C269.489 227.237 267.986 228.705 266.901 230.465C265.014 233.589 264.592 237.384 263.035 240.686C261.276 244.405 258.155 247.312 254.313 248.809C250.472 250.306 246.201 250.28 242.378 248.736" fill="#60A5FA"/>
<path d="M240.747 229.15C236.934 224.658 236.426 217.456 236.987 211.603C237.548 205.75 238.913 199.863 237.983 194.056C237.435 190.616 236.096 187.328 235.648 183.875C235.199 180.422 235.832 176.516 238.517 174.286C241.605 171.721 246.434 172.313 249.674 174.733C252.913 177.153 254.741 180.922 256.106 184.684C259.088 192.964 260.183 202.145 257.729 210.59C255.275 219.035 249.522 226.578 241.077 229.15" fill="#60A5FA"/>
<path d="M238.919 265.941C238.902 265.768 238.902 265.594 238.919 265.421C238.919 265.079 238.919 264.579 238.919 263.941C238.965 262.626 239.09 260.791 239.374 258.502C239.715 255.825 240.204 253.168 240.839 250.544C241.628 247.325 242.853 244.227 244.481 241.337C246.105 238.445 248.101 235.776 250.418 233.399C252.307 231.457 254.399 229.724 256.66 228.229C257.616 227.571 258.533 227.072 259.331 226.611C260.13 226.151 260.855 225.842 261.436 225.559L262.808 224.987C262.965 224.913 263.129 224.854 263.297 224.809C263.149 224.901 262.994 224.983 262.835 225.053L261.515 225.677C260.948 225.98 260.249 226.335 259.45 226.782C258.652 227.229 257.761 227.762 256.811 228.426C251.849 231.811 247.73 236.283 244.771 241.501C241.268 247.611 240.311 254.037 239.612 258.542C239.295 260.817 239.13 262.672 239.044 263.955C239.005 264.566 238.978 265.059 238.952 265.428C238.952 265.599 238.941 265.771 238.919 265.941Z" fill="#263238"/>
<path d="M206.032 211.425C198.979 215.674 198.999 219.535 200.18 223.178C201.361 226.822 205.682 229.354 209.278 227.992C211.303 227.223 212.775 225.46 214.028 223.698C215.282 221.935 216.463 220.034 218.224 218.772C219.986 217.509 222.532 217.016 224.3 218.272" fill="#60A5FA"/>
<g opacity="0.3">
<path d="M206.032 211.425C198.979 215.674 198.999 219.535 200.18 223.178C201.361 226.822 205.682 229.354 209.278 227.992C211.303 227.223 212.775 225.46 214.028 223.698C215.282 221.935 216.463 220.034 218.224 218.772C219.986 217.509 222.532 217.016 224.3 218.272" fill="black"/>
</g>
<path d="M200.754 216.082C202.595 213.543 207.153 212.793 210.03 214.069C212.906 215.345 215.018 217.851 216.898 220.363C218.778 222.876 220.625 225.526 223.238 227.269C225.851 229.012 229.499 229.65 232.105 227.887C232.934 227.27 233.629 226.491 234.146 225.598C234.663 224.705 234.993 223.716 235.114 222.691C235.347 220.638 235.208 218.56 234.704 216.555C234.078 213.609 233.062 210.531 230.693 208.663C228.054 206.572 224.399 206.473 221.028 206.585C217.168 206.71 213.243 206.999 209.614 208.334C205.986 209.669 202.291 212.55 200.754 216.088" fill="#60A5FA"/>
<path d="M233.055 262.429C233.047 262.376 233.047 262.323 233.055 262.271C233.055 262.146 233.055 261.994 233.055 261.804L232.989 259.995C232.95 258.397 232.884 256.135 232.804 253.346C232.725 250.557 232.613 247.203 232.428 243.481C232.244 239.758 231.934 235.727 231.452 231.471C231.225 229.407 230.877 227.359 230.41 225.335C230.264 224.855 230.146 224.375 229.994 223.908C229.842 223.441 229.657 222.981 229.479 222.534C229.301 222.086 229.11 221.646 228.925 221.218L228.325 219.949C226.868 217.006 224.913 214.336 222.545 212.057C220.943 210.53 219.114 209.259 217.122 208.288C216.766 208.124 216.463 207.972 216.172 207.847L215.44 207.578L215.005 207.4L214.859 207.328C214.914 207.333 214.967 207.346 215.018 207.367L215.466 207.512L216.192 207.755C216.476 207.867 216.792 208.018 217.155 208.17C219.189 209.103 221.058 210.358 222.691 211.886C225.104 214.152 227.1 216.824 228.589 219.778C228.787 220.216 228.991 220.655 229.202 221.093C229.387 221.534 229.578 221.974 229.77 222.409C229.961 222.843 230.113 223.329 230.284 223.796C230.456 224.263 230.568 224.763 230.713 225.25C231.193 227.287 231.545 229.351 231.769 231.432C232.277 235.694 232.494 239.778 232.679 243.481C232.864 247.183 232.93 250.538 232.983 253.346C233.035 256.154 233.055 258.423 233.062 259.995C233.062 260.758 233.062 261.357 233.062 261.804C233.062 261.988 233.062 262.146 233.062 262.271C233.07 262.323 233.067 262.377 233.055 262.429Z" fill="#263238"/>
<path d="M235.597 263.481C235.256 262.497 234.995 261.488 234.819 260.462C234.328 257.662 234.217 254.808 234.489 251.978C234.922 247.79 235.823 243.662 237.174 239.673C238.625 235.148 240.585 230.307 242.267 225.112C243.093 222.584 243.77 220.01 244.293 217.404C244.757 214.981 245.092 212.535 245.295 210.077C245.615 205.896 245.69 201.699 245.52 197.509C245.401 193.924 245.21 191.031 245.091 189.025C245.038 188.045 244.992 187.275 244.959 186.723C244.959 186.473 244.959 186.276 244.959 186.124C244.951 186.054 244.951 185.984 244.959 185.914C244.979 185.98 244.99 186.049 244.992 186.118C244.992 186.276 245.032 186.473 245.051 186.716C245.104 187.269 245.17 188.032 245.249 189.018C245.414 190.991 245.639 193.911 245.79 197.496C245.995 201.697 245.942 205.908 245.632 210.103C245.442 212.582 245.114 215.047 244.649 217.489C244.121 220.1 243.433 222.676 242.59 225.204C240.908 230.419 238.935 235.253 237.477 239.758C236.117 243.724 235.197 247.826 234.733 251.991C234.438 254.804 234.511 257.642 234.951 260.436C235.122 261.422 235.28 262.185 235.419 262.692C235.478 262.935 235.525 263.126 235.558 263.277C235.58 263.343 235.593 263.412 235.597 263.481Z" fill="#263238"/>
<path d="M253.084 266.664H219.958L219.199 260.304H253.084V266.664Z" fill="#263238"/>
<path d="M223.516 265.941L227.652 285.007H245.657L249.529 265.941H223.516Z" fill="#263238"/>
<path d="M253.08 266.638C253.08 266.73 245.823 266.789 236.817 266.763C227.812 266.737 220.555 266.638 220.555 266.546C220.555 266.454 227.812 266.394 236.817 266.421C245.823 266.447 253.08 266.566 253.08 266.638Z" fill="#455A64"/>
<path d="M247.399 276.069C246.491 275.407 245.511 274.851 244.476 274.412C243.345 273.975 242.146 273.737 240.933 273.708C239.435 273.718 237.951 273.996 236.553 274.53C235.042 275.043 233.63 275.635 232.258 275.957C231.037 276.22 229.778 276.258 228.543 276.069C227.711 275.948 226.905 275.692 226.155 275.313C225.955 275.203 225.764 275.08 225.581 274.944C225.456 274.852 225.396 274.793 225.403 274.787C225.409 274.78 225.687 274.944 226.214 275.188C226.964 275.523 227.76 275.745 228.576 275.845C229.78 275.999 231.001 275.941 232.185 275.674C233.505 275.339 234.916 274.741 236.44 274.228C237.87 273.692 239.386 273.424 240.913 273.438C242.161 273.481 243.391 273.751 244.542 274.234C245.316 274.555 246.042 274.98 246.699 275.497C246.878 275.635 247.05 275.782 247.214 275.937C247.346 276.021 247.408 276.065 247.399 276.069Z" fill="#455A64"/>
<path d="M247.149 277.345C246.274 276.699 245.332 276.15 244.338 275.707C243.253 275.27 242.097 275.034 240.927 275.01C239.489 275.016 238.062 275.272 236.712 275.767C235.254 276.253 233.881 276.819 232.575 277.167C231.417 277.501 230.209 277.635 229.006 277.562C228.191 277.513 227.394 277.3 226.664 276.937C226.47 276.833 226.285 276.714 226.11 276.582C225.991 276.49 225.931 276.437 225.938 276.431C225.945 276.424 226.215 276.582 226.723 276.819C227.451 277.125 228.229 277.296 229.019 277.325C230.193 277.356 231.364 277.2 232.489 276.865C233.769 276.503 235.128 275.938 236.6 275.444C237.987 274.937 239.456 274.683 240.934 274.694C242.142 274.733 243.331 275.001 244.437 275.484C245.179 275.809 245.873 276.232 246.502 276.74C246.675 276.875 246.84 277.02 246.997 277.174C247.109 277.279 247.155 277.338 247.149 277.345Z" fill="white"/>
<path d="M247.726 274.806C246.789 274.121 245.783 273.535 244.725 273.057C243.571 272.564 242.342 272.271 241.089 272.189C239.555 272.158 238.028 272.426 236.597 272.978C235.145 273.549 233.66 274.032 232.15 274.425C230.881 274.643 229.585 274.643 228.317 274.425C227.462 274.288 226.632 274.024 225.856 273.642C225.646 273.534 225.445 273.408 225.255 273.267C225.13 273.175 225.064 273.116 225.071 273.109C225.077 273.103 225.368 273.274 225.909 273.524C226.69 273.848 227.511 274.069 228.35 274.181C229.593 274.356 230.856 274.33 232.09 274.102C233.58 273.693 235.047 273.206 236.484 272.642C237.956 272.076 239.526 271.81 241.103 271.86C242.388 271.96 243.645 272.285 244.817 272.82C245.604 273.168 246.346 273.61 247.027 274.135C247.214 274.276 247.39 274.43 247.555 274.596C247.674 274.734 247.766 274.8 247.726 274.806Z" fill="white"/>
<path d="M146.485 191.057L124.918 285.244H130.038L151.09 191.057H146.485Z" fill="#263238"/>
<path d="M143.924 191.057L122.363 285.244H127.476L148.529 191.057H143.924Z" fill="#455A64"/>
<path d="M202.16 185.394C202.16 186.236 220.923 285 220.923 285H226.419L207.286 185.394H202.16Z" fill="#263238"/>
<path d="M199.855 185.394C199.855 186.236 218.619 285 218.619 285H224.471L204.988 185.394H199.855Z" fill="#455A64"/>
<path d="M187.468 191.057L186.215 285.244H193.129L194.138 191.057H187.468Z" fill="#263238"/>
<path d="M137.274 185.394L136.832 191.636L194.949 193.615L195.569 186.177L137.274 185.394Z" fill="#455A64"/>
<path d="M194.949 193.615H198.189L198.782 186.216L195.569 186.177L194.949 193.615Z" fill="#263238"/>
<path d="M141.198 215.339L185.52 217.404V224.921L139.918 222.672L141.198 215.339Z" fill="#455A64"/>
<path d="M185.519 191.057L184.266 285.244H191.18L192.183 191.057H185.519Z" fill="#455A64"/>
<path d="M156.115 191.057C156.019 192.742 156.019 194.43 156.115 196.115L180.024 197.483V192.011L156.115 191.057Z" fill="#455A64"/>
<path d="M176.93 11.6016C177.213 12.2592 180.934 37.1723 180.934 37.1723L185.388 36.8697L181.792 11.6016H176.93Z" fill="#455A64"/>
<path d="M183.944 13.5023L181.793 11.6016L185.389 36.8697L187.236 36.7382L183.944 13.5023Z" fill="#263238"/>
<path d="M189.827 23.2953C189.827 23.7754 189.484 36.6528 189.484 36.6528L194.261 36.3306V23.2953H189.827Z" fill="#263238"/>
<path d="M188.616 23.2953C188.616 23.7754 188.273 36.6528 188.273 36.6528L193.05 36.3306V23.2953H188.616Z" fill="#455A64"/>
<path d="M174.068 23.6898L170.531 37.8826L174.754 37.5932L177.967 23.6898H174.068Z" fill="#263238"/>
<path d="M172.247 23.6898L168.711 37.8826L172.933 37.5932L176.146 23.6898H172.247Z" fill="#455A64"/>
<path d="M226.154 32.9829L229.011 35.5018L225.376 186.512H221.18L226.154 32.9829Z" fill="#E0E0E0"/>
<path d="M130.939 41.0198L118.496 184.822L221.179 186.512L226.154 32.9829L130.939 41.0198Z" fill="#FAFAFA"/>
<path d="M130.94 41.0528L132.629 40.8949L137.597 40.4609L156.657 38.8167L226.141 32.8975H226.293V33.0488C224.973 74.4828 223.245 127.683 221.384 185.487C221.384 185.855 221.384 186.217 221.351 186.578V186.743H221.18L118.497 185.033H118.332V184.868C122.046 142.336 125.18 106.374 127.39 81.0399C128.505 68.3861 129.37 58.3959 129.99 51.556C130.293 48.1492 130.524 45.525 130.649 43.7493C130.729 42.8746 130.795 42.2037 130.834 41.7762C130.874 41.3487 130.9 41.1186 130.9 41.1186C130.9 41.1186 130.9 41.3553 130.854 41.7762C130.808 42.1972 130.762 42.9075 130.689 43.7953C130.537 45.5711 130.313 48.2084 130.029 51.6283C129.442 58.4748 128.591 68.4847 127.516 81.1517C125.345 106.466 122.238 142.402 118.609 184.901L118.457 184.73L221.14 186.407L220.969 186.572C220.969 186.217 220.969 185.848 221.002 185.487C222.889 127.676 224.63 74.496 225.983 33.0422L226.128 33.1803L156.723 38.9087L137.656 40.4806L132.655 40.8884L130.94 41.0528Z" fill="#455A64"/>
<path d="M28.3112 25.0117C28.4611 25.0843 28.5876 25.1973 28.6762 25.338C28.7649 25.4787 28.8121 25.6413 28.8127 25.8075V30.1876C28.8129 30.3239 28.7815 30.4584 28.7208 30.5805C28.6601 30.7026 28.5719 30.809 28.463 30.8913C28.3537 30.9722 28.2275 31.0273 28.0938 31.0524C27.96 31.0774 27.8223 31.0718 27.6911 31.036C27.3291 30.9406 26.9514 30.9206 26.5813 30.9771C26.2113 31.0337 25.8569 31.1657 25.5403 31.3649C25.2488 31.5318 24.9944 31.7561 24.7926 32.024C24.5907 32.292 24.4455 32.598 24.366 32.9236C24.3105 33.2563 24.3216 33.5967 24.3986 33.9252C24.4756 34.2536 24.6169 34.5637 24.8146 34.8374C25.0215 35.1476 25.2886 35.4134 25.6002 35.619C25.9118 35.8246 26.2616 35.9658 26.6289 36.0344C27.3717 36.1095 28.1181 35.9312 28.746 35.5286C29.374 35.126 29.8464 34.5229 30.086 33.818C30.1632 33.6026 30.3216 33.4256 30.5274 33.3244C30.7333 33.2232 30.9705 33.2058 31.189 33.2758C31.4075 33.3458 31.5901 33.4979 31.6982 33.6997C31.8064 33.9015 31.8315 34.1374 31.7683 34.3573C31.3949 35.4587 30.6527 36.3985 29.6664 37.0188C28.6801 37.6392 27.5097 37.9023 26.3518 37.7641C25.7487 37.6591 25.1731 37.4337 24.6595 37.1014C24.1459 36.7691 23.705 36.3369 23.3631 35.8305C23.0259 35.3596 22.7877 34.8255 22.663 34.2603C22.5382 33.6952 22.5296 33.1107 22.6374 32.5421C22.7654 31.9801 23.0069 31.45 23.3472 30.9842C23.6875 30.5183 24.1194 30.1264 24.6167 29.8325C25.3493 29.3935 26.1898 29.1658 27.0445 29.1748V25.8075C27.0445 25.5749 27.1368 25.3517 27.3011 25.1866C27.4655 25.0215 27.6887 24.9279 27.922 24.9262C28.0565 24.9254 28.1895 24.9546 28.3112 25.0117Z" fill="#60A5FA"/>
<path d="M27.0979 23.1701C27.094 23.0268 27.1329 22.8855 27.2097 22.7643C27.2864 22.6431 27.3976 22.5473 27.529 22.4892C27.6604 22.431 27.8062 22.4131 27.9479 22.4377C28.0896 22.4623 28.2207 22.5283 28.3247 22.6274C28.4287 22.7264 28.5008 22.854 28.5319 22.9939C28.563 23.1339 28.5517 23.2799 28.4995 23.4134C28.4472 23.547 28.3563 23.662 28.2383 23.744C28.1204 23.8259 27.9806 23.8711 27.8368 23.8738C27.6455 23.8773 27.4605 23.8054 27.3221 23.6736C27.1837 23.5418 27.1031 23.3608 27.0979 23.1701Z" fill="#60A5FA"/>
<path d="M48.6245 46.623C48.6245 46.623 48.4068 46.623 48.0439 46.8072C47.5374 47.0228 47.1092 47.3877 46.8168 47.8529C46.6165 48.17 46.4882 48.5269 46.4407 48.8986C46.3932 49.3238 46.4711 49.7535 46.6651 50.1351C46.8631 50.5885 47.196 50.9703 47.6188 51.2289C48.0416 51.4875 48.5339 51.6104 49.0291 51.581C49.5243 51.5516 49.9984 51.3712 50.3874 51.0644C50.7764 50.7576 51.0615 50.339 51.2041 49.8654C51.3452 49.4616 51.3703 49.0265 51.2767 48.6092C51.1856 48.2452 51.0143 47.9059 50.7753 47.6161C50.4348 47.1934 49.9753 46.8819 49.4558 46.7217C49.0797 46.623 48.8554 46.6362 48.862 46.6099C48.9146 46.6041 48.9677 46.6041 49.0204 46.6099C49.084 46.604 49.148 46.604 49.2117 46.6099C49.3009 46.6173 49.3892 46.6327 49.4756 46.6559C50.0341 46.7874 50.5344 47.0968 50.9006 47.5372C51.1613 47.8367 51.3487 48.1924 51.4482 48.5764C51.5543 49.0115 51.5337 49.4678 51.3888 49.8917C51.2248 50.3723 50.9302 50.7981 50.5378 51.1216C50.126 51.4852 49.6036 51.7004 49.0545 51.7326C48.5053 51.7648 47.9612 51.6122 47.5095 51.2992C47.0851 51.0236 46.745 50.6367 46.5265 50.1811C46.3254 49.7736 46.2474 49.3166 46.3022 48.8657C46.374 48.3868 46.5727 47.9357 46.8777 47.5588C47.1827 47.182 47.583 46.893 48.0373 46.7217C48.1218 46.6933 48.2077 46.6691 48.2946 46.6493C48.3583 46.6447 48.4223 46.6447 48.486 46.6493C48.5312 46.6361 48.5776 46.6273 48.6245 46.623Z" fill="#263238"/>
<path d="M55.0438 52.9895C55.0438 52.9895 54.9053 52.9894 54.681 53.1144C54.3692 53.2525 54.1068 53.4819 53.9288 53.7721C53.7912 53.9781 53.7103 54.2165 53.6941 54.4635C53.6779 54.7105 53.727 54.9574 53.8365 55.1795C53.9579 55.4595 54.1628 55.6955 54.4233 55.8554C54.6838 56.0154 54.9874 56.0915 55.2929 56.0736C55.5983 56.0556 55.8909 55.9444 56.1307 55.7551C56.3706 55.5657 56.5463 55.3074 56.6338 55.0151C56.7159 54.7815 56.7354 54.5306 56.6902 54.2872C56.6451 54.0437 56.537 53.8163 56.3765 53.6274C56.1658 53.3595 55.8781 53.1622 55.5518 53.0618C55.3143 52.996 55.1758 52.996 55.1758 52.9763C55.3061 52.9474 55.4413 52.9474 55.5716 52.9763C55.9264 53.059 56.2454 53.2525 56.4821 53.5288C56.6461 53.7204 56.7675 53.9446 56.8383 54.1864C56.9102 54.4735 56.8965 54.7752 56.7987 55.0546C56.7015 55.381 56.5058 55.6696 56.2382 55.8812C55.9706 56.0928 55.6442 56.2171 55.3032 56.2373C54.9622 56.2574 54.6233 56.1723 54.3326 55.9937C54.0418 55.815 53.8133 55.5514 53.6781 55.2387C53.5505 54.9729 53.5023 54.6761 53.5396 54.3837C53.5761 54.131 53.671 53.8901 53.8167 53.68C54.0174 53.3763 54.3114 53.1456 54.6546 53.0223C54.778 52.9725 54.9137 52.961 55.0438 52.9895Z" fill="#263238"/>
<path d="M47.5564 33.5877V33.2589C47.5564 33.0353 47.5564 32.713 47.5564 32.2921C47.5564 32.0751 47.5564 31.8383 47.5564 31.5818C47.5564 31.3253 47.5168 31.0294 47.497 30.7203C47.4772 30.4111 47.4442 30.0626 47.4178 29.7206C47.4062 29.5372 47.382 29.3548 47.3453 29.1747L47.2397 28.5959C46.9163 26.6619 46.3001 24.7881 45.4122 23.0385C44.2546 20.7124 42.66 18.6293 40.7148 16.9023L39.9495 16.1855C39.6592 15.9618 39.3491 15.7514 39.0457 15.5278L38.5838 15.1989C38.431 15.0824 38.2701 14.9769 38.1022 14.8832L37.0928 14.2979L36.5782 14.002L35.991 13.752L34.8827 13.2522C34.5066 13.0943 34.1108 12.9825 33.7149 12.8379L33.1211 12.6405C33.0222 12.6405 32.9232 12.5682 32.8177 12.5419L32.5142 12.4696C31.6793 12.2481 30.8308 12.0811 29.9741 11.9697C29.5387 11.9237 29.1033 11.8448 28.6547 11.8184H27.3352C27.1108 11.8184 26.8799 11.8184 26.6754 11.8184L26.0157 11.8711C25.5604 11.9105 25.0986 11.9302 24.6368 11.9829C23.7063 12.1182 22.7853 12.3115 21.8791 12.5616L21.2193 12.7589L20.8697 12.8576L20.5332 12.9891L19.2137 13.5153C18.7651 13.7126 18.3362 13.9493 17.8942 14.1729C17.6765 14.2913 17.4456 14.3834 17.2344 14.5215L16.5747 14.9161C15.7201 15.4508 14.9024 16.0418 14.127 16.6853L12.8999 17.6784L12.6228 17.9415L12.3655 18.2309L11.8509 18.8162L11.3363 19.4015L10.9207 20.0066L10.4589 20.6643L10.2279 20.98L10.03 21.322C9.76612 21.7758 9.49562 22.2296 9.23172 22.6899C8.96782 23.1503 8.78969 23.6567 8.57198 24.1368C6.85484 28.159 6.50497 32.6307 7.57576 36.8696C7.71431 37.3826 7.85945 37.8956 8.0046 38.4086L8.57857 39.8818L8.72372 40.2501L8.90185 40.5986L9.25811 41.3024L9.60118 42.0061L10.0168 42.6638L10.4325 43.3215L10.6436 43.6437L10.8811 43.9528L11.8179 45.163C12.4858 45.9165 13.2021 46.6261 13.9621 47.2873L14.5229 47.774C14.7076 47.9384 14.9187 48.0699 15.1167 48.2212C15.5191 48.504 15.9084 48.8 16.3174 49.0696L17.5775 49.7996L17.8942 49.9772C17.9993 50.033 18.1072 50.0835 18.2175 50.1285L18.8772 50.431C19.7335 50.8207 20.6152 51.1525 21.5162 51.4241C21.9582 51.5556 22.4135 51.6411 22.8357 51.7529L23.4954 51.9108C23.7132 51.9568 23.9441 51.97 24.1552 52.0029L25.4747 52.1804C25.9167 52.2199 26.3587 52.1804 26.7942 52.2331C27.6553 52.2567 28.517 52.2237 29.3738 52.1344H29.6905L30.0071 52.0818L30.6207 51.9766C31.0297 51.8976 31.4454 51.8516 31.8412 51.7529L33.0156 51.4241L33.5896 51.2663L34.1437 51.0558L35.2389 50.6349C35.4181 50.5659 35.5923 50.4846 35.7601 50.3915L36.2681 50.1416C36.6046 49.9641 36.9279 49.8062 37.2643 49.6286L38.1946 49.0499C40.4027 47.6405 42.316 45.818 43.8288 43.6832C44.0004 43.4464 44.1653 43.2228 44.3236 43.0255L44.7327 42.3284L45.1351 41.6707C45.1945 41.5589 45.2671 41.4536 45.3199 41.3418L45.4782 41.0064L46.0654 39.7239C46.2435 39.3162 46.3623 38.9018 46.5008 38.5269C46.5668 38.3362 46.6327 38.1521 46.6921 37.9679C46.76 37.7974 46.8129 37.6214 46.8505 37.4418C46.9362 37.0932 47.0088 36.7841 47.0814 36.4684C47.1539 36.1527 47.2265 35.8896 47.2793 35.6266C47.3321 35.3635 47.3453 35.1333 47.3717 34.9228C47.431 34.5085 47.4772 34.1862 47.5036 33.9692C47.53 33.7522 47.5564 33.6404 47.5564 33.6404C47.5564 33.6404 47.5564 33.7522 47.5564 33.9692C47.5564 34.1862 47.4904 34.5085 47.4442 34.9294C47.4442 35.1399 47.3849 35.3766 47.3585 35.6397C47.3321 35.9028 47.2397 36.1724 47.1737 36.475C47.1078 36.7775 47.0286 37.1327 46.9428 37.4549C46.9076 37.6365 46.8568 37.8147 46.7911 37.9876L46.5998 38.5467C46.4678 38.9281 46.3491 39.3425 46.1775 39.7568L45.5904 41.0722C45.5376 41.184 45.4848 41.2958 45.4386 41.4076C45.3924 41.5194 45.3133 41.6312 45.2473 41.743C45.1219 41.9666 44.99 42.1902 44.8514 42.4007L44.4094 43.0255L43.9212 43.6832C42.4133 45.8207 40.5072 47.6494 38.3067 49.0696L37.3765 49.6549C37.0466 49.8391 36.7168 49.9969 36.3737 50.1745L35.8591 50.431C35.6895 50.5232 35.513 50.6024 35.3313 50.6678L34.2361 51.0953C34.0514 51.1676 33.8667 51.2465 33.6753 51.3123L33.0948 51.4767L31.9138 51.8056C31.518 51.9042 31.1023 51.9568 30.6867 52.0358L30.0533 52.2331L29.7366 52.2857H29.42C28.5438 52.382 27.662 52.4172 26.781 52.3909C26.3389 52.3909 25.8969 52.3909 25.4615 52.3383L24.142 52.1673C23.9177 52.1673 23.6868 52.1213 23.4822 52.0752L22.8225 51.9174C22.3739 51.8056 21.9186 51.7201 21.4634 51.5885C20.5629 51.3128 19.6814 50.9789 18.8244 50.5889L18.1647 50.2863L17.8348 50.135L17.5247 49.9509L16.1986 49.2077C15.783 48.9446 15.3938 48.6421 14.9847 48.3527C14.7761 48.2154 14.5756 48.066 14.3843 47.9055L13.817 47.4122C13.0488 46.7485 12.3259 46.0344 11.653 45.2748L10.703 44.0515L10.4654 43.7489L10.2609 43.4201L9.83869 42.7624L9.41645 42.1047L9.06019 41.401L8.70393 40.6973L8.5192 40.3421L8.37405 39.9673C8.18273 39.474 7.9914 38.9807 7.79347 38.4809L7.35804 36.9288C6.84868 34.8003 6.66188 32.6079 6.80386 30.4243C7.00219 28.2431 7.52701 26.1039 8.36086 24.0777C8.58957 23.591 8.80948 23.1043 9.0206 22.6176C9.23172 22.1309 9.50222 21.6705 9.83209 21.2365L10.03 20.8945L10.2675 20.5722L10.7293 19.9145L11.1912 19.2568L11.7124 18.6649L12.227 18.0796C12.3127 17.9809 12.3985 17.8823 12.4909 17.7902L12.7746 17.5206L13.9027 16.4683C14.6903 15.8396 15.519 15.264 16.3834 14.7451L17.0431 14.3439C17.2542 14.2124 17.4851 14.1138 17.7029 13.9954C18.1515 13.7783 18.5869 13.5416 19.0224 13.3377L20.388 12.8115L20.7311 12.68L21.0808 12.5748L21.7801 12.3841C22.6945 12.1308 23.6245 11.9375 24.5642 11.8053C25.0261 11.7461 25.4945 11.7264 25.9563 11.6935L26.616 11.6409C26.847 11.6409 27.0713 11.6409 27.2758 11.6409L28.5953 11.6803C29.0439 11.7132 29.4859 11.7856 29.9148 11.8382C30.7786 11.9487 31.6339 12.1179 32.4746 12.3446L32.7847 12.4169C32.8902 12.4169 32.9892 12.4827 33.0882 12.5156L33.6885 12.7195C34.0778 12.8642 34.4802 12.976 34.8629 13.1404L35.9778 13.6468L36.5254 13.8967L37.04 14.1993L38.0626 14.7912C38.231 14.8841 38.392 14.9896 38.5443 15.1069L39.0061 15.4423C39.3162 15.6659 39.6262 15.8763 39.9165 16.1L40.7478 16.8234C42.7014 18.5663 44.3006 20.6674 45.4584 23.0122C46.3382 24.7744 46.9454 26.6592 47.2595 28.6025L47.3585 29.1878C47.3984 29.3674 47.4227 29.55 47.431 29.7337C47.431 30.0955 47.4772 30.3914 47.497 30.74C47.5168 31.0886 47.5498 31.3319 47.5498 31.595C47.5498 31.858 47.5498 32.0948 47.5498 32.3118C47.5498 32.7328 47.5498 33.055 47.5498 33.2786C47.5498 33.5022 47.5564 33.5877 47.5564 33.5877Z" fill="#263238"/>
</svg>
