<svg width="320" height="320" viewBox="0 0 320 320" fill="none" xmlns="http://www.w3.org/2000/svg">
<g clip-path="url(#clip0_1394_298848)">
<mask id="mask0_1394_298848" style="mask-type:luminance" maskUnits="userSpaceOnUse" x="0" y="0" width="320" height="320">
<path d="M320 0H0V320H320V0Z" fill="white"/>
</mask>
<g mask="url(#mask0_1394_298848)">
<path d="M257.61 116.146C257.353 116.146 257.146 115.938 257.146 115.681C257.146 115.425 257.353 115.217 257.61 115.217C257.866 115.217 258.074 115.425 258.074 115.681C258.074 115.938 257.866 116.146 257.61 116.146ZM257.61 115.881C257.72 115.881 257.809 115.792 257.809 115.681C257.809 115.571 257.72 115.482 257.61 115.482C257.5 115.482 257.411 115.571 257.411 115.681C257.411 115.792 257.5 115.881 257.61 115.881Z" fill="#CED4DE"/>
<mask id="mask1_1394_298848" style="mask-type:luminance" maskUnits="userSpaceOnUse" x="113" y="80" width="126" height="36">
<path d="M238.435 80.0488H113.966L113.895 115.64H238.363L238.435 80.0488Z" fill="white"/>
</mask>
<g mask="url(#mask1_1394_298848)">
<path d="M115.747 81.8537C131.698 81.8537 133.691 91.2812 133.691 100.692V110.959C133.691 112.586 134.929 113.908 136.451 113.908L230.432 113.09C231.955 113.09 233.191 111.769 233.191 110.142V99.0739C233.191 88.9774 225.533 80.791 216.088 80.791C215.448 80.791 115.08 81.8537 115.747 81.8537Z" fill="#CED4DE"/>
<path d="M115.744 83.579C115.744 85.1182 116.995 86.3673 118.535 86.3673C216.108 86.3673 216.125 86.3663 216.143 86.3673C222.537 86.3783 227.718 91.6039 227.728 98.0548V111.281H230.488C232.01 111.281 233.246 110.035 233.246 108.499V98.0548C233.287 88.5156 225.655 80.7499 216.199 80.709H216.089H215.059C214.806 80.7239 214.559 80.7648 214.309 80.7917H118.531C116.992 80.7917 115.744 82.0398 115.744 83.579Z" fill="#CED4DE"/>
</g>
<mask id="mask2_1394_298848" style="mask-type:luminance" maskUnits="userSpaceOnUse" x="75" y="78" width="154" height="167">
<path d="M228.887 78.2559H75.7637V244.985H228.887V78.2559Z" fill="white"/>
</mask>
<g mask="url(#mask2_1394_298848)">
<path d="M216.09 86.0247V80.791H116.713C103.692 80.8109 93.141 91.4507 93.1211 104.58V241.18C93.1211 242.715 94.3572 243.961 95.8795 243.961H180.967C193.971 243.92 204.496 233.284 204.505 220.172V98.0351V97.9045C204.586 91.5075 209.747 86.0426 216.09 86.0336C216.116 86.0336 216.14 86.0257 216.165 86.0247H216.09Z" fill="white"/>
<path d="M116.659 80.7925C103.636 80.8135 93.0844 91.4532 93.0645 104.582V184.554L152.481 80.7188L116.659 80.7925Z" fill="#F7F7F7"/>
<path d="M93.1196 136.837V106.344C93.1405 93.2144 103.692 82.5756 116.714 82.5547H216.089M86.0576 240.18C91.9921 240.18 93.0657 233.875 93.0657 229.89C93.0657 197.305 93.1196 174.271 93.1196 166.008M93.6389 146.153V149.816" stroke="#CED4DE" stroke-width="7.2" stroke-miterlimit="10" stroke-linecap="round"/>
<path d="M216.089 80.709H215.06C206.04 81.2583 198.999 88.7897 198.987 97.9062V98.1664V220.104C198.97 228.413 193.404 235.667 185.435 237.766C184.564 237.992 183.672 238.104 182.781 238.113V238.116H182.712H182.641H79.4854C83.6264 241.772 89.0435 243.994 94.9779 243.999H95.0148H124.757H180.967C181.573 243.999 182.51 243.999 183.118 243.906C184.19 243.807 185.253 243.628 186.299 243.369C196.981 240.86 204.547 231.262 204.561 220.197V97.999V97.8694C204.639 91.8731 209.195 86.9096 215.114 86.3673C215.44 86.3494 216.067 86.3514 216.392 86.3673L216.089 80.709Z" fill="#CED4DE"/>
</g>
<mask id="mask3_1394_298848" style="mask-type:luminance" maskUnits="userSpaceOnUse" x="69" y="213" width="114" height="32">
<path d="M182.865 213.127H69.7822V244.485H182.865V213.127Z" fill="white"/>
</mask>
<g mask="url(#mask3_1394_298848)">
<path d="M216.087 80.707H215.057C206.037 81.2573 198.999 88.7878 198.986 97.9043V98.1645V220.102C198.969 228.411 193.404 235.666 185.435 237.764C183.625 238.236 181.725 238.236 179.917 237.764C171.923 235.636 166.359 228.332 166.381 219.992V216.281C166.392 214.745 165.166 213.489 163.643 213.48H146.158H132.101H110.43H87.7399H74.1783C72.6561 213.48 71.4199 214.727 71.4199 216.263V220.196C71.408 233.33 81.957 243.986 94.9773 243.997H95.0122H124.754H180.964C181.571 243.997 182.509 243.997 183.116 243.904C184.189 243.805 185.252 243.627 186.298 243.367C196.981 240.859 204.545 231.261 204.558 220.196V97.998V97.8674C204.637 91.8721 209.193 86.9067 215.113 86.3663C215.456 86.3474 215.799 86.3474 216.143 86.3663C222.537 86.3763 227.718 91.603 227.728 98.0528V111.28H230.487C232.01 111.28 233.246 110.034 233.246 108.498V98.0528C233.286 88.5136 225.654 80.7489 216.199 80.707H216.087Z" fill="#CED4DE"/>
</g>
<mask id="mask4_1394_298848" style="mask-type:luminance" maskUnits="userSpaceOnUse" x="0" y="0" width="320" height="320">
<path d="M0 0H320V320H0V0Z" fill="white"/>
</mask>
<g mask="url(#mask4_1394_298848)">
<mask id="mask5_1394_298848" style="mask-type:luminance" maskUnits="userSpaceOnUse" x="95" y="84" width="111" height="155">
<path d="M205.607 84.4863C199.127 84.4863 115.389 84.4863 115.389 84.4863L100.685 94.9536L95.2021 126.605V213.583C95.2021 213.583 161.993 213.583 163.987 213.583C165.981 213.583 166.23 215.327 166.23 216.574C166.23 217.82 167.476 238.505 182.18 238.505C196.884 238.505 198.878 225.047 198.878 217.57C198.878 210.094 198.878 98.6919 198.878 96.1997C198.878 93.7075 201.869 86.2309 205.607 84.4863Z" fill="white"/>
</mask>
<g mask="url(#mask5_1394_298848)">
<path d="M220.816 197.533C235.459 184.115 236.474 161.392 223.083 146.779C209.693 132.165 186.968 131.196 172.325 144.614C157.682 158.032 156.665 180.756 170.056 195.369C183.446 209.982 206.173 210.951 220.816 197.533Z" fill="#CED4DE"/>
<path d="M220.816 197.533C235.459 184.115 236.474 161.392 223.083 146.779C209.693 132.165 186.968 131.196 172.325 144.614C157.682 158.032 156.665 180.756 170.056 195.369C183.446 209.982 206.173 210.951 220.816 197.533Z" stroke="#CED4DE" stroke-width="7.2" stroke-miterlimit="10"/>
</g>
</g>
<path d="M115.345 189.217H142.315" stroke="#CED4DE" stroke-width="7.2" stroke-miterlimit="10" stroke-linecap="round"/>
<path d="M115.345 164.096H142.315" stroke="#CED4DE" stroke-width="7.2" stroke-miterlimit="10" stroke-linecap="round"/>
<path d="M115.344 138.975H176.478" stroke="#CED4DE" stroke-width="7.2" stroke-miterlimit="10" stroke-linecap="round"/>
<path d="M115.344 112.059H183.542" stroke="#CED4DE" stroke-width="7.2" stroke-miterlimit="10" stroke-linecap="round"/>
<path d="M237.839 186.459C240.157 189.378 240.011 193.634 237.351 196.388L235.366 198.444C232.706 201.198 228.458 201.493 225.46 199.278L237.839 186.459Z" fill="#F9FAFC" stroke="#95A1B6" stroke-width="2"/>
<rect x="232.811" y="201.356" width="10.1906" height="7.05855" transform="rotate(-46 232.811 201.356)" fill="#CED4DE" stroke="#95A1B6" stroke-width="2"/>
<path d="M237.255 211.799L237.254 206.403L244.849 198.504L249.808 199.173C249.9 199.259 250.019 199.37 250.163 199.505C250.542 199.862 251.095 200.388 251.784 201.061C253.164 202.408 255.089 204.34 257.269 206.681C257.835 207.289 258.461 207.888 259.089 208.481C259.17 208.557 259.251 208.633 259.332 208.71C259.886 209.232 260.439 209.755 260.981 210.302C262.222 211.555 263.343 212.883 264.102 214.439C265.109 216.503 265.225 219.319 264.188 221.652C263.179 223.922 261.062 225.776 257.438 226.002C255.274 226.138 253.157 225.373 251.017 224.023C248.871 222.67 246.785 220.781 244.693 218.777C243.427 217.566 242.183 216.411 240.957 215.274C240.894 215.215 240.83 215.156 240.767 215.097C239.582 213.998 238.415 212.913 237.255 211.799Z" fill="#F9FAFC" stroke="#95A1B6" stroke-width="2"/>
<path d="M203.45 200.879C223.311 200.879 239.411 184.811 239.411 164.991C239.411 145.17 223.311 129.104 203.45 129.104C183.589 129.104 167.487 145.17 167.487 164.991C167.487 184.811 183.589 200.879 203.45 200.879Z" fill="white"/>
<mask id="path-25-outside-1_1394_298848" maskUnits="userSpaceOnUse" x="161.5" y="123" width="84" height="84" fill="black">
<rect fill="white" x="161.5" y="123" width="84" height="84"/>
<path d="M243.5 165C243.5 187.091 225.591 205 203.5 205C181.409 205 163.5 187.091 163.5 165C163.5 142.909 181.409 125 203.5 125C225.591 125 243.5 142.909 243.5 165ZM167.5 165C167.5 184.882 183.618 201 203.5 201C223.382 201 239.5 184.882 239.5 165C239.5 145.118 223.382 129 203.5 129C183.618 129 167.5 145.118 167.5 165Z"/>
</mask>
<path d="M243.5 165C243.5 187.091 225.591 205 203.5 205C181.409 205 163.5 187.091 163.5 165C163.5 142.909 181.409 125 203.5 125C225.591 125 243.5 142.909 243.5 165ZM167.5 165C167.5 184.882 183.618 201 203.5 201C223.382 201 239.5 184.882 239.5 165C239.5 145.118 223.382 129 203.5 129C183.618 129 167.5 145.118 167.5 165Z" fill="#CED4DE"/>
<path d="M243.5 165C243.5 187.091 225.591 205 203.5 205C181.409 205 163.5 187.091 163.5 165C163.5 142.909 181.409 125 203.5 125C225.591 125 243.5 142.909 243.5 165ZM167.5 165C167.5 184.882 183.618 201 203.5 201C223.382 201 239.5 184.882 239.5 165C239.5 145.118 223.382 129 203.5 129C183.618 129 167.5 145.118 167.5 165Z" stroke="#95A1B6" stroke-width="3" mask="url(#path-25-outside-1_1394_298848)"/>
<path d="M216.711 173.058L213.309 176.457L204.555 167.702L195.866 176.39L192.446 172.971L201.135 164.281L192.379 155.525L195.78 152.125L204.535 160.881L213.224 152.192L216.644 155.612L207.955 164.302L216.711 173.058Z" fill="#95A1B6"/>
</g>
</g>
<defs>
<clipPath id="clip0_1394_298848">
<rect width="320" height="320" fill="white"/>
</clipPath>
</defs>
</svg>
