<svg width="16" height="16" viewBox="0 0 16 16" fill="none" xmlns="http://www.w3.org/2000/svg">
<g id="vuesax/bold/bank">
<g id="vuesax/bold/bank_2">
<g id="bank">
<path id="Vector" d="M14.6693 12.6667V14.6667H1.33594V12.6667C1.33594 12.3 1.63594 12 2.0026 12H14.0026C14.3693 12 14.6693 12.3 14.6693 12.6667Z" fill="#4FC0FF" stroke="#4FC0FF" stroke-width="1.5" stroke-miterlimit="10" stroke-linecap="round" stroke-linejoin="round"/>
<path id="Vector_2" d="M4.66927 7.33398H3.33594V12.0007H4.66927V7.33398Z" fill="#4FC0FF"/>
<path id="Vector_3" d="M7.33333 7.33398H6V12.0007H7.33333V7.33398Z" fill="#4FC0FF"/>
<path id="Vector_4" d="M9.9974 7.33398H8.66406V12.0007H9.9974V7.33398Z" fill="#4FC0FF"/>
<path id="Vector_5" d="M12.6693 7.33398H11.3359V12.0007H12.6693V7.33398Z" fill="#4FC0FF"/>
<path id="Vector_6" d="M15.3307 15.166H0.664062C0.390729 15.166 0.164062 14.9393 0.164062 14.666C0.164062 14.3927 0.390729 14.166 0.664062 14.166H15.3307C15.6041 14.166 15.8307 14.3927 15.8307 14.666C15.8307 14.9393 15.6041 15.166 15.3307 15.166Z" fill="#4FC0FF"/>
<path id="Vector_7" d="M14.2493 3.83258L8.24927 1.43258C8.11594 1.37924 7.88927 1.37924 7.75594 1.43258L1.75594 3.83258C1.5226 3.92591 1.33594 4.19924 1.33594 4.45258V6.66591C1.33594 7.03258 1.63594 7.33258 2.0026 7.33258H14.0026C14.3693 7.33258 14.6693 7.03258 14.6693 6.66591V4.45258C14.6693 4.19924 14.4826 3.92591 14.2493 3.83258ZM8.0026 5.66591C7.44927 5.66591 7.0026 5.21924 7.0026 4.66591C7.0026 4.11258 7.44927 3.66591 8.0026 3.66591C8.55594 3.66591 9.0026 4.11258 9.0026 4.66591C9.0026 5.21924 8.55594 5.66591 8.0026 5.66591Z" fill="#4FC0FF"/>
</g>
</g>
</g>
</svg>
