<svg width="117" height="40" viewBox="0 0 117 40" fill="none" xmlns="http://www.w3.org/2000/svg">
<path d="M23.2882 25.1345C23.2882 24.3847 22.9702 23.6675 22.3342 22.9829C21.6982 22.2657 20.5759 21.8582 18.9673 21.7604C17.9198 22.8688 16.6478 23.423 15.1514 23.423C13.8794 23.423 12.7945 23.0318 11.8966 22.2494C10.9988 21.467 10.5498 20.5053 10.5498 19.3643C10.5498 18.2233 10.9988 17.2616 11.8966 16.4792C12.7945 15.6968 13.8794 15.3056 15.1514 15.3056C15.8248 15.3056 16.4794 15.4686 17.1154 15.7946C17.7888 16.1206 18.3874 16.5118 18.9111 16.9682C19.7342 16.9356 20.3702 16.8215 20.8191 16.6259C21.268 16.4303 21.586 16.2021 21.7731 15.9413C21.9975 15.6479 22.1285 15.3219 22.1659 14.9633C22.2033 14.6047 22.222 14.2461 22.222 13.8875V8.94865C22.222 8.13366 21.9227 7.38386 21.3241 6.69926C20.763 6.01467 19.7903 5.67237 18.4061 5.67237H6.67782L6.62171 37.9462C6.62171 38.5982 6.2663 39.1035 5.5555 39.4621C4.88211 39.7881 4.13389 39.9511 3.31085 39.9511C1.10362 39.9511 0 39.1687 0 37.6039V3.66748C0 2.49389 0.336697 1.71149 1.01009 1.32029C1.7209 0.929094 2.56264 0.733496 3.53532 0.733496H19.809C20.7817 0.733496 21.8105 0.896495 22.8954 1.22249C24.0177 1.54849 25.0652 1.98859 26.0379 2.54279H25.9818C26.9545 3.16218 27.6653 3.97718 28.1142 4.98777C28.6005 5.99837 28.8437 7.17196 28.8437 8.50856V14.0342C28.8437 15.3382 28.5257 16.414 27.8897 17.2616C27.2537 18.0766 26.5804 18.7286 25.8695 19.2176C26.3559 19.4784 26.8235 19.7555 27.2725 20.0489C27.7214 20.3097 28.0955 20.6031 28.3948 20.9291C28.8811 21.3855 29.2552 21.9234 29.5171 22.5428C29.8164 23.1622 29.966 23.8957 29.966 24.7433V31.7359C29.966 34.4091 28.7689 36.3814 26.3746 37.6528C25.1774 38.3048 24.0364 38.7938 22.9515 39.1198C21.904 39.4458 20.8565 39.6088 19.809 39.6088H11.5038C10.8678 39.6088 10.3628 39.3806 9.98868 38.9242C9.65198 38.4678 9.48363 37.8647 9.48363 37.1149C9.48363 35.4849 10.2693 34.6699 11.8405 34.6699H19.5284C20.9126 34.6699 21.8853 34.3276 22.4465 33.643C23.0076 32.9584 23.2882 32.1923 23.2882 31.3447V25.1345Z" fill="#1A2433"/>
<path d="M44.1967 37.5061C44.1967 39.0709 43.1679 39.8533 41.1103 39.8533C39.0153 39.8533 37.9678 39.0709 37.9678 37.5061V12.2738C37.9678 10.709 39.0153 9.92665 41.1103 9.92665C43.1679 9.92665 44.1967 10.709 44.1967 12.2738V37.5061ZM45.3752 3.76528C45.3752 4.80847 44.9637 5.68867 44.1406 6.40587C43.3176 7.12306 42.3075 7.48166 41.1103 7.48166C39.9132 7.48166 38.8844 7.12306 38.024 6.40587C37.2009 5.68867 36.7894 4.80847 36.7894 3.76528C36.7894 2.68948 37.2009 1.79299 38.024 1.07579C38.8844 0.358597 39.9132 0 41.1103 0C42.3075 0 43.3176 0.358597 44.1406 1.07579C44.9637 1.79299 45.3752 2.68948 45.3752 3.76528Z" fill="#1A2433"/>
<path d="M59.3455 14.7188V32.5183C59.3455 33.3659 59.5512 34.0179 59.9627 34.4743C60.3743 34.9307 61.2534 35.1589 62.6002 35.1589H64.0592C65.5182 35.1589 66.2103 35.9087 66.1355 37.4083C66.1355 38.9405 65.4434 39.7066 64.0592 39.7066H62.2074C61.0102 39.7066 59.8879 39.5762 58.8404 39.3154C57.7929 39.022 56.7828 38.6145 55.8102 38.0929V38.1418C53.977 37.0986 53.0605 35.2404 53.0605 32.5672V14.7188H50.8719C49.5251 14.7188 48.8143 13.9527 48.7395 12.4205C48.7395 10.8883 49.4503 10.1222 50.8719 10.1222H53.0605V4.88997C53.0605 3.32518 54.1267 2.54279 56.2591 2.54279C58.3167 2.54279 59.3455 3.32518 59.3455 4.88997V10.1222H64.0031C65.4621 10.1222 66.1542 10.8883 66.0794 12.4205C66.0794 13.9527 65.3873 14.7188 64.0031 14.7188H59.3455Z" fill="#1A2433"/>
<path d="M86.2738 5.52567L73.9843 38.3863V38.3374C73.7599 38.8264 73.4419 39.2339 73.0304 39.5599C72.6562 39.8533 72.1886 40 71.6274 40C71.3282 40 71.0289 39.9674 70.7296 39.9022C70.4677 39.8696 70.1871 39.8207 69.8878 39.7555H69.944C67.8116 39.1687 67.0259 38.1255 67.5871 36.6259L80.3816 2.73839C80.5686 2.21679 80.8866 1.77669 81.3355 1.41809C81.8219 1.05949 82.383 0.847596 83.019 0.782395C83.655 0.684595 84.2723 0.619395 84.8709 0.586795C85.4694 0.521596 85.9371 0.488997 86.2738 0.488997C86.6105 0.488997 87.0781 0.521596 87.6767 0.586795C88.2752 0.619395 88.8925 0.668295 89.5285 0.733496C90.0523 0.798694 90.5573 1.04319 91.0436 1.46699C91.5674 1.89079 91.9602 2.31459 92.2221 2.73839C94.3171 8.34556 96.4308 14.0016 98.5632 19.7066C100.733 25.379 102.865 31.0187 104.96 36.6259C105.484 38.1255 104.699 39.1687 102.604 39.7555C102.304 39.8207 102.024 39.8696 101.762 39.9022C101.537 39.9674 101.275 40 100.976 40C100.452 40 99.9661 39.8533 99.5172 39.5599C99.1057 39.2339 98.8064 38.8264 98.6193 38.3374V38.3863L86.2738 5.52567ZM90.4825 27.824C90.4825 28.8672 90.0523 29.7637 89.1918 30.5134C88.3688 31.2306 87.3587 31.5892 86.1615 31.5892C84.9644 31.5892 83.9543 31.2306 83.1313 30.5134C82.3082 29.7637 81.8967 28.8672 81.8967 27.824C81.8967 26.7808 82.3082 25.9006 83.1313 25.1834C83.9543 24.4336 84.9644 24.0587 86.1615 24.0587C87.3587 24.0587 88.3688 24.4336 89.1918 25.1834C90.0523 25.9006 90.4825 26.7808 90.4825 27.824Z" fill="#1A2433"/>
<path d="M115.822 37.5061C115.822 39.0709 114.793 39.8533 112.735 39.8533C110.64 39.8533 109.593 39.0709 109.593 37.5061V12.2738C109.593 10.709 110.64 9.92665 112.735 9.92665C114.793 9.92665 115.822 10.709 115.822 12.2738V37.5061ZM117 3.76528C117 4.80847 116.588 5.68867 115.765 6.40587C114.942 7.12306 113.932 7.48166 112.735 7.48166C111.538 7.48166 110.509 7.12306 109.649 6.40587C108.826 5.68867 108.414 4.80847 108.414 3.76528C108.414 2.68948 108.826 1.79299 109.649 1.07579C110.509 0.358597 111.538 0 112.735 0C113.932 0 114.942 0.358597 115.765 1.07579C116.588 1.79299 117 2.68948 117 3.76528Z" fill="#1A2433"/>
</svg>
