<svg width="16" height="16" viewBox="0 0 16 16" fill="none" xmlns="http://www.w3.org/2000/svg">
<g id="flutterwave logo">
<g id="Group 19">
<path id="Vector" d="M0.960938 4.76757C0.960938 4.01797 1.18014 3.37797 1.64014 2.91797L2.44014 3.71797C1.54974 4.60517 2.32734 7.36357 4.86254 9.90117C7.39774 12.4388 10.1577 13.2156 11.0473 12.3268L11.8473 13.1268C10.3465 14.6276 6.92814 13.5628 4.06654 10.7004C2.08174 8.71477 0.960938 6.46197 0.960938 4.76757Z" fill="#22C55E"/>
<path id="Vector_2" d="M6.00665 13.8165C5.25705 13.8165 4.61705 13.5973 4.15625 13.1373L4.95625 12.3373C5.84505 13.2261 8.60345 12.4485 11.141 9.91174C13.6786 7.37494 14.4546 4.61653 13.5658 3.72773L14.3658 2.92773C15.8674 4.42853 14.8018 7.84693 11.9394 10.7085C9.95385 12.6965 7.70105 13.8165 6.00665 13.8165Z" fill="#EF4444"/>
<path id="Vector_3" d="M12.2046 9.56184C11.719 8.16344 10.727 6.66904 9.41098 5.35384C6.54938 2.49144 3.13098 1.42584 1.63018 2.92744C1.52378 3.03464 1.61578 3.29944 1.83658 3.52024C2.05738 3.74104 2.32218 3.83224 2.42858 3.72584C3.31818 2.83704 6.07658 3.61464 8.61338 6.15224C9.81338 7.35224 10.7078 8.69224 11.139 9.93224C11.5166 11.0194 11.4798 11.8962 11.0398 12.3362C10.9326 12.4426 11.0254 12.7082 11.2454 12.9282C11.4654 13.1482 11.731 13.241 11.8382 13.1338C12.607 12.365 12.7374 11.0946 12.2046 9.56184Z" fill="#F9A8D4"/>
<path id="Vector_4" d="M14.3634 2.92866C13.593 2.15826 12.3242 2.02786 10.7898 2.56146C9.39225 3.04626 7.89705 4.03906 6.58185 5.35426C3.72025 8.21586 2.65465 11.6343 4.15545 13.1359C4.26265 13.2423 4.52745 13.1503 4.74825 12.9303C4.96905 12.7103 5.06105 12.4447 4.95385 12.3375C4.06265 11.4487 4.84265 8.69026 7.38025 6.15266C8.58025 4.95266 9.92025 4.05826 11.1603 3.62706C12.2474 3.25026 13.1242 3.28626 13.5651 3.72626C13.6714 3.83266 13.937 3.74066 14.157 3.51986C14.377 3.29906 14.4698 3.03506 14.3634 2.92866Z" fill="#FB923C"/>
</g>
</g>
</svg>
