<svg width="192" height="192" viewBox="0 0 192 192" fill="none" xmlns="http://www.w3.org/2000/svg">
<g clip-path="url(#clip0_545_225647)">
<mask id="mask0_545_225647" style="mask-type:luminance" maskUnits="userSpaceOnUse" x="0" y="0" width="192" height="192">
<path d="M192 0H0V192H192V0Z" fill="white"/>
</mask>
<g mask="url(#mask0_545_225647)">
<g opacity="0.364135">
<path d="M115.592 11.5206C115.592 14.5039 113.174 16.9225 110.191 16.9225C107.207 16.9225 104.789 14.5039 104.789 11.5206C104.789 8.53752 107.207 6.11914 110.191 6.11914C113.174 6.11914 115.592 8.53752 115.592 11.5206Z" fill="#16A34A"/>
</g>
<g opacity="0.740422">
<path d="M73.115 24.6972L69.9071 26.5493C69.3263 26.8846 68.5837 26.6855 68.2483 26.1049L62.4559 16.0719C62.1205 15.4913 62.3196 14.7487 62.9003 14.4135L66.1083 12.5613C66.689 12.2261 67.4315 12.425 67.7669 13.0056L73.5593 23.0386C73.8947 23.6194 73.6956 24.3618 73.115 24.6972Z" fill="#DC2626"/>
</g>
<g opacity="0.740422">
<path d="M19.0034 46.0706L19.7249 46.3154C20.5431 46.5929 21.4455 46.4499 22.138 45.9331L22.7487 45.4774C24.4925 44.1761 26.9717 45.4392 26.944 47.6149L26.9342 48.3768C26.9231 49.2408 27.3377 50.0549 28.0432 50.5538L28.6654 50.9937C30.4419 52.2501 30.0065 54.998 27.9288 55.644L27.2011 55.8701C26.376 56.1266 25.7303 56.7727 25.4738 57.5978L25.2475 58.3255C24.6017 60.4032 21.8536 60.8384 20.5973 59.0619L20.1571 58.4398C19.6582 57.7344 18.8441 57.3196 17.9803 57.3307L17.2183 57.3403C15.0427 57.3681 13.7796 54.8892 15.0809 53.1452L15.5368 52.5345C16.0536 51.8422 16.1964 50.9398 15.9189 50.1214L15.6741 49.3999C14.9754 47.3392 16.9427 45.3719 19.0034 46.0706Z" fill="#16A34A"/>
</g>
<g opacity="0.740422">
<path d="M13.9849 84.3395L14.7951 87.954C14.9418 88.6083 14.5304 89.2578 13.8759 89.4043L2.57156 91.9384C1.91728 92.085 1.26795 91.6735 1.12106 91.0192L0.310867 87.4045C0.164332 86.7502 0.575801 86.1009 1.23008 85.9544L12.5346 83.4202C13.1889 83.2737 13.8382 83.6852 13.9849 84.3395Z" fill="#3B82F6"/>
</g>
<g opacity="0.740422">
<path d="M25.5452 130.515C25.5452 133.498 23.1268 135.916 20.1437 135.916C17.1604 135.916 14.7422 133.498 14.7422 130.515C14.7422 127.532 17.1604 125.113 20.1437 125.113C23.1268 125.113 25.5452 127.532 25.5452 130.515Z" fill="#FACC15"/>
</g>
<g opacity="0.740422">
<path d="M19.0034 157.166L19.7249 157.411C20.5431 157.688 21.4455 157.546 22.138 157.029L22.7487 156.573C24.4925 155.272 26.9717 156.535 26.944 158.711L26.9342 159.473C26.9231 160.337 27.3377 161.151 28.0432 161.65L28.6654 162.089C30.4419 163.346 30.0065 166.094 27.9288 166.74L27.2011 166.966C26.376 167.222 25.7303 167.868 25.4738 168.694L25.2475 169.421C24.6017 171.499 21.8536 171.934 20.5973 170.158L20.1571 169.536C19.6582 168.83 18.8441 168.415 17.9803 168.426L17.2183 168.436C15.0427 168.464 13.7796 165.985 15.0809 164.241L15.5368 163.63C16.0536 162.938 16.1964 162.036 15.9189 161.217L15.6741 160.496C14.9754 158.435 16.9427 156.468 19.0034 157.166Z" fill="#3B82F6"/>
</g>
<g opacity="0.740422">
<path d="M158.039 40.9169C156.402 38.7834 156.909 35.6055 159.162 33.8768C161.415 32.148 164.616 32.4809 166.253 34.6144C166.256 34.6185 166.259 34.6225 166.262 34.6264" stroke="#3B82F6" stroke-width="3.75" stroke-linecap="round" stroke-linejoin="round"/>
</g>
<g opacity="0.740422">
<path d="M172.589 70.3558L173.311 70.6005C174.129 70.878 175.032 70.735 175.724 70.2183L176.335 69.7625C178.079 68.4612 180.558 69.7243 180.53 71.9001L180.52 72.6619C180.509 73.5259 180.924 74.34 181.629 74.8389L182.251 75.2789C184.028 76.5352 183.593 79.2831 181.515 79.9291L180.787 80.1553C179.962 80.4117 179.316 81.0579 179.06 81.8829L178.833 82.6106C178.188 84.6883 175.439 85.1235 174.183 83.347L173.743 82.725C173.244 82.0195 172.43 81.6047 171.566 81.6159L170.804 81.6256C168.629 81.6532 167.365 79.1743 168.667 77.4306L169.123 76.8198C169.639 76.1273 169.782 75.2249 169.505 74.4066L169.26 73.685C168.561 71.6243 170.529 69.6571 172.589 70.3558Z" fill="#FACC15"/>
</g>
<g opacity="0.740422">
<path d="M177.66 134.367C181.333 134.851 183.935 138.441 183.424 142.32C182.914 146.199 179.471 148.992 175.798 148.509C175.791 148.508 175.784 148.507 175.777 148.506" stroke="#DC2626" stroke-width="2.8125" stroke-linecap="round" stroke-linejoin="round"/>
</g>
<g opacity="0.740422">
<path d="M166.072 179.928L162.864 181.78C162.283 182.115 161.541 181.916 161.205 181.335L155.413 171.303C155.078 170.722 155.277 169.979 155.857 169.644L159.065 167.792C159.646 167.456 160.389 167.655 160.724 168.236L166.516 178.269C166.851 178.85 166.653 179.592 166.072 179.928Z" fill="#3B82F6"/>
</g>
<g opacity="0.740422">
<path d="M60.9449 185.787C58.6897 182.848 59.3878 178.469 62.4918 176.088C65.5958 173.706 70.0057 174.165 72.2609 177.104L72.2738 177.121" stroke="#16A34A" stroke-width="3.75" stroke-linecap="round" stroke-linejoin="round"/>
</g>
<g opacity="0.2">
<path d="M192 95.9997C192 149.019 149.019 192 96 192C42.9809 192 0 149.019 0 95.9997C0 42.9804 42.9809 0 96 0C149.019 0 192 42.9804 192 95.9997Z" fill="#2563EB"/>
</g>
<path d="M161.328 96.0037C161.328 132.081 132.081 161.328 96.0038 161.328C59.9265 161.328 30.6797 132.081 30.6797 96.0037C30.6797 59.9261 59.9265 30.6797 96.0038 30.6797C132.081 30.6797 161.328 59.9261 161.328 96.0037Z" fill="#2563EB"/>
<path d="M67.1602 96.1085L86.3107 115.259L124.833 76.7361" stroke="white" stroke-width="9.982" stroke-linecap="round" stroke-linejoin="round"/>
</g>
</g>
<defs>
<clipPath id="clip0_545_225647">
<rect width="192" height="192" fill="white"/>
</clipPath>
</defs>
</svg>
