<svg width="16" height="16" viewBox="0 0 16 16" fill="none" xmlns="http://www.w3.org/2000/svg">
<g id="paypal logo" clip-path="url(#clip0_1548_38192)">
<path id="Vector" d="M13.4041 4.13375C13.4312 3.91359 13.4454 3.68944 13.4454 3.46197C13.4454 1.55 11.8954 0 9.98343 0H4.19774C3.8338 0 3.52308 0.262812 3.46271 0.621687L1.33083 13.2928C1.25433 13.7475 1.60483 14.1618 2.06586 14.1618H4.18183C4.54577 14.1618 4.86233 13.8992 4.92267 13.5403C4.92267 13.5403 4.92621 13.5192 4.93258 13.4814H4.93261L4.63774 15.2341C4.57036 15.6348 4.87927 16 5.28561 16H7.13677C7.45755 16 7.73142 15.7683 7.78461 15.452L8.31052 12.3264C8.40118 11.7876 8.86764 11.3931 9.41399 11.3931H9.9003C12.5419 11.3931 14.6832 9.25166 14.6832 6.61013C14.6832 5.58797 14.178 4.68444 13.4041 4.13375Z" fill="#60A5FA"/>
<path id="Vector_2" d="M13.4006 4.13281C13.0696 6.82591 10.7743 8.91125 7.9917 8.91125H6.37717C6.01277 8.91125 5.69805 9.15397 5.59933 9.49716L4.63427 15.2331C4.56686 15.6338 4.87577 15.9991 5.28211 15.9991H7.13327C7.45405 15.9991 7.72792 15.7674 7.78111 15.4511L8.30702 12.3255C8.39767 11.7867 8.86414 11.3921 9.41049 11.3921H9.8968C12.5384 11.3921 14.6797 9.25072 14.6797 6.60919C14.6797 5.58703 14.1745 4.6835 13.4006 4.13281Z" fill="#BFDBFE"/>
<path id="Vector_3" d="M6.37944 8.91248H7.99397C10.7766 8.91248 13.0719 6.82714 13.4029 4.13408C12.9064 3.78077 12.2997 3.57227 11.6438 3.57227H7.42978C6.95 3.57227 6.54034 3.91873 6.46072 4.39186L5.60156 9.49836C5.70028 9.15517 6.01503 8.91248 6.37944 8.91248Z" fill="#93C5FD"/>
</g>
<defs>
<clipPath id="clip0_1548_38192">
<rect width="16" height="16" fill="white"/>
</clipPath>
</defs>
</svg>
