<svg width="16" height="16" viewBox="0 0 16 16" fill="none" xmlns="http://www.w3.org/2000/svg">
<g id="Stripe logo" clip-path="url(#clip0_1548_70106)">
<path id="Vector" d="M14.4 0H1.6C0.716344 0 0 0.716344 0 1.6V14.4C0 15.2837 0.716344 16 1.6 16H14.4C15.2837 16 16 15.2837 16 14.4V1.6C16 0.716344 15.2837 0 14.4 0Z" fill="#8B94EE"/>
<path id="Vector_2" fill-rule="evenodd" clip-rule="evenodd" d="M7.2846 5.98442C7.2846 5.56842 7.62594 5.40842 8.19127 5.40842C9.00194 5.40842 10.0259 5.65375 10.8366 6.09108V3.58442C9.95127 3.23242 9.0766 3.09375 8.19127 3.09375C6.02594 3.09375 4.58594 4.22442 4.58594 6.11242C4.58594 9.05642 8.63927 8.58708 8.63927 9.85642C8.63927 10.3471 8.2126 10.5071 7.61527 10.5071C6.72994 10.5071 5.59927 10.1444 4.70327 9.65375V12.1924C5.69527 12.6191 6.69794 12.8004 7.61527 12.8004C9.83394 12.8004 11.3593 11.7018 11.3593 9.79242C11.3486 6.61375 7.2846 7.17908 7.2846 5.98442Z" fill="white"/>
</g>
<defs>
<clipPath id="clip0_1548_70106">
<rect width="16" height="16" fill="white"/>
</clipPath>
</defs>
</svg>
